<svg xmlns="http://www.w3.org/2000/svg" width="82" height="24" viewBox="0 0 82 24"><path fill="#fff" d="M23.1 128L17 146.7l-2.6-8.7h-4.2l4.8 13.7h4.4l8.3-23.7h-4.6zM7.3 146.7l-3-8.7H.1l4.8 13.7h4.9l1.9-5.8-2.1-6.1-2.3 6.9zm27.2-7.9c-1-.7-2.2-1-3.6-1-3.8 0-6.7 3.1-6.7 7.1 0 1.8.6 3.5 1.8 4.8 1.2 1.5 3.2 2.3 5.2 2.3 1.3 0 2.5-.4 3.5-1.1v.9h3.8v-20h-4v7zm0 8c-.6.9-1.8 1.5-3 1.5-1.9 0-3.3-1.5-3.3-3.4 0-1.7 1.1-3.5 3.2-3.5 1.2 0 2.3.4 3.1 1.5.4.5.5 1.3.5 1.9 0 .9-.2 1.5-.5 2zm26.6-3.6c-1-.3-2-.6-2-1.2s.8-.9 1.6-.9c1.1 0 2 .5 2.4.9l.2.1 1.9-2.9-.1-.1c-.9-.7-2.8-1.4-4.6-1.4-2.6 0-5.3 1.5-5.3 4.3 0 2.7 2.4 3.5 4.3 4.1 1.2.4 2.2.8 2.2 1.4 0 .5-.6.9-1.5.9-1.3 0-2.7-.5-3.5-1.3l-.2-.2-2 2.9.2.1c1.6 1.2 3.6 1.8 5.5 1.8 2.7 0 5.5-1.5 5.5-4.3-.1-2.7-2.7-3.6-4.6-4.2zm13.2 1l6.8-6.2h-5.6l-4.4 4.1v-10.3h-3.9v19.9h3.9v-5.5l5.4 5.5h5.4l-7.6-7.5zM47 137.7c-3.8 0-6.7 3.1-6.7 7.1 0 4.2 2.9 7.1 7.2 7.1 2.2 0 4.3-.9 5.6-2.5l.1-.1-2.3-2.3-.1.1c-.3.3-1.5 1.5-3.2 1.5s-3.1-1.1-3.4-2.8h9.2v-.2c.1-.3.1-.7.1-1.1 0-3.7-2.8-6.8-6.5-6.8zm-2.6 5.5c0-.1 0-.2 0-.2.2-1 1.3-1.9 2.6-1.9s2.2 1 2.4 1.9v.2h-5z"/></svg>