<svg xmlns="http://www.w3.org/2000/svg" width="90" height="30" viewBox="0 0 90 30"><path d="M23 9.4l-3.2 11.1h-1.5l-2.7-8.9-2.6 8.9h-1.5L8.2 9.4h1.6l2.4 8.7 2.5-8.7h1.6l2.5 8.7 2.4-8.7H23zm6.7 7.6h-5.9c.1 1.5 1 2.4 2.4 2.4s2.3-.8 2.5-.9l.6.9c-.1.1-1.1 1.2-3.3 1.2-2.3 0-3.8-1.6-3.8-4s1.7-3.9 3.9-3.9 3.6 1.5 3.6 3.6c0 .3 0 .7 0 .7zm-1.4-1c0-.8-.7-2.2-2.2-2.2-1.5 0-2.2 1.3-2.2 2.2h4.4zm7 4.6c-1.1 0-2-.4-2.7-1.4v1.2h-1.5v-11h1.5V14c.6-.8 1.5-1.3 2.7-1.3 2.2 0 3.7 1.7 3.7 3.9 0 2.3-1.5 4-3.7 4zM35 14c-1.5 0-2.4 1.2-2.4 2.7s.9 2.7 2.4 2.7 2.4-1.2 2.4-2.7S36.5 14 35 14zm11.7-3.3h-4.6v3.7h4.3v1.3h-4.3v4.8h-1.6v-11h6.1v1.2zm2.1.6c-.6 0-1-.4-1-.9s.4-.9 1-.9 1 .4 1 .9-.4.9-1 .9zm.8 9.2H48v-7.6h1.5v7.6zm3.4 0h-1.5v-11H53v11zm2.7-9.2c-.6 0-1-.4-1-.9s.4-.9 1-.9 1 .4 1 .9-.5.9-1 .9zm.7 9.2h-1.5v-7.6h1.5v7.6zm8.5 0h-1.5v-4.2c0-1.3-.2-2.2-1.6-2.2-1.4 0-2 1.2-2 2.7v3.8h-1.5V13h1.5v1.2c.4-.8 1.2-1.3 2.3-1.3 2.2 0 2.7 1.4 2.7 3.2v4.4zm8.9-1.6c0 1.7-.3 2.6-.8 3.3-.6.7-1.5 1.5-3.4 1.5s-3.2-1-3.4-1.1l.7-1.1c.4.4 1.6 1 2.7 1s1.8-.4 2.1-.8c.3-.4.6-1.1.6-2.1V19c-.5.8-1.4 1.4-2.7 1.4-2 0-3.7-1.4-3.7-3.8s1.7-3.8 3.7-3.8c1.3 0 2.2.6 2.7 1.3v-1.2h1.5v6zm-3.9-5c-1.6 0-2.4 1.2-2.4 2.6 0 1.4.9 2.6 2.4 2.6 1.6 0 2.4-1.1 2.4-2.6 0-1.4-.8-2.6-2.4-2.6zM80 20c-.5.4-1.2.7-2.1.7-1.3 0-2.3-.5-3-1.4l.7-.9c.6.7 1.5 1.1 2.2 1.1s1.5-.3 1.5-1.1-1.2-1.1-1.7-1.3c-.5-.2-.7-.2-1-.4-.5-.2-1.2-.7-1.2-1.8 0-1.4 1.2-2.2 2.6-2.2s2.1.5 2.6 1l-.6.9c-.4-.5-1.2-.8-1.9-.8s-1.2.3-1.2.9c0 .6.7.9 1.5 1.1.4.1.7.2 1 .4.3.1.7.3.9.5.3.3.6.7.6 1.4-.1.9-.4 1.4-.9 1.9z" fill="#595959"/></svg>