<?xml version="1.0" standalone="no"?>
<!DOCTYPE svg PUBLIC "-//W3C//DTD SVG 1.1//EN" "http://www.w3.org/Graphics/SVG/1.1/DTD/svg11.dtd" >
<svg xmlns="http://www.w3.org/2000/svg">
<metadata>Generated by IcoMoon</metadata>
<defs>
<font id="Wdesk_Icons" horiz-adv-x="1024">
<font-face units-per-em="1024" ascent="960" descent="-64" />
<missing-glyph horiz-adv-x="1024" />
<glyph unicode="&#x20;" d="" horiz-adv-x="512" />
<glyph unicode="&#xe600;" d="M864 736l-480-480-224 211.2-96-83.2 320-320 576 576z" />
<glyph unicode="&#xe601;" d="M512 960c-282.77 0-512-229.23-512-512s229.23-512 512-512 512 229.23 512 512-229.23 512-512 512zM445.539 224l-221.539 224 88.613 89.602 132.926-134.402 265.848 268.801 88.613-89.602-354.461-358.398z" />
<glyph unicode="&#xe602;" d="M876.8 179.2l-275.2 268.8 275.2 268.8-96 96-268.8-275.2-268.8 275.2-96-96 275.2-268.8-275.2-268.8 96-96 268.8 275.2 268.8-275.2z" />
<glyph unicode="&#xe603;" d="M512 960c-282.8 0-512-229.2-512-512s229.2-512 512-512 512 229.2 512 512-229.2 512-512 512zM602.6 448l135.8-135.8-90.6-90.6-135.8 135.8-135.8-135.8-90.6 90.6 135.8 135.8-135.8 135.8 90.6 90.6 135.8-135.8 135.8 135.8 90.6-90.6-135.8-135.8z" />
<glyph unicode="&#xe604;" d="M896 384h-320v-320h-128v320h-320v128h320v320h128v-320h320v-128z" />
<glyph unicode="&#xe605;" d="M512 960c-282.8 0-512-229.2-512-512s229.2-512 512-512 512 229.2 512 512-229.2 512-512 512zM576 384v-192h-128v192h-192v128h192v192h128v-192h192v-128h-192z" />
<glyph unicode="&#xe606;" d="M128 384v128h768v-128h-768z" />
<glyph unicode="&#xe607;" d="M512 960c-282.77 0-512-229.23-512-512s229.23-512 512-512 512 229.23 512 512-229.23 512-512 512zM832 384h-640v128h640v-128z" />
<glyph unicode="&#xe608;" d="M874 810c-200 200-524 200-724 0s-200-524 0-724 524.2-200 724 0 200 524 0 724zM828.8 764.8c159.4-159.4 173.2-409.8 42-585l-627 627c175.2 131.2 425.6 117.2 585-42zM195.2 131.2c-159.4 159.4-173.2 409.8-42 585l627-627c-175.2-131.2-425.6-117.2-585 42z" />
<glyph unicode="&#xe609;" d="M576 192c0-35.4-28.6-64-64-64s-64 28.6-64 64c0 35.4 28.6 64 64 64s64-28.6 64-64zM448 576h128v-256h-128v256zM512 767l401.8-703h-803.6l401.8 703zM512 896l-512-896h1024l-512 896z" />
<glyph unicode="&#xe60a;" d="M192 384l320-192-320-192zM641.103 746.688c0.706 14.931 2.516 29.472 5.429 43.708 2.869 14.237 7.018 27.736 12.447 40.54s12.844 24.003 22.246 33.595c9.401 9.592 21.23 17.232 35.531 22.961 14.257 5.686 31.338 8.507 51.244 8.507 19.862 0 36.988-2.821 51.244-8.507 14.301-5.729 26.13-13.369 35.531-22.961s16.817-20.791 22.246-33.595 9.578-26.303 12.491-40.54c2.869-14.237 4.679-28.777 5.385-43.708 0.75-14.975 1.103-29.341 1.103-43.231 0-13.846-0.353-28.256-1.103-43.188-0.706-14.931-2.516-29.515-5.385-43.752-2.913-14.193-7.062-27.649-12.491-40.236-5.429-12.631-12.844-23.742-22.246-33.335-9.401-9.636-21.142-17.188-35.266-22.701-14.080-5.512-31.25-8.247-51.509-8.247-19.906 0-36.988 2.734-51.244 8.247-14.301 5.512-26.13 13.065-35.531 22.701-9.401 9.592-16.817 20.704-22.246 33.335-5.429 12.587-9.578 26.043-12.447 40.236-2.913 14.237-4.723 28.821-5.429 43.752-0.75 14.931-1.103 29.341-1.103 43.187 0 13.889 0.353 28.256 1.103 43.231zM690.185 656.277c0.883-17.622 3.796-34.159 8.651-49.611 4.899-15.452 12.756-28.517 23.614-39.194s26.041-16.016 45.55-16.016 34.692 5.339 45.55 16.016c10.858 10.678 18.714 23.742 23.614 39.194 4.855 15.452 7.768 31.989 8.651 49.611 0.927 17.579 1.368 33.508 1.368 47.745 0 9.202-0.088 19.445-0.265 30.644s-1.103 22.397-2.692 33.595c-1.633 11.198-4.017 22.136-7.062 32.814-3.090 10.678-7.592 20.009-13.55 27.996-6.003 7.986-13.506 14.497-22.51 19.489-9.048 4.948-20.083 7.466-33.103 7.466s-24.055-2.517-33.103-7.466c-9.004-4.992-16.508-11.502-22.466-19.489-6.003-7.986-10.505-17.318-13.594-27.996-3.046-10.678-5.429-21.615-7.018-32.814-1.633-11.198-2.56-22.397-2.737-33.595s-0.265-21.442-0.265-30.644c0-14.237 0.441-30.166 1.368-47.745zM321.103 746.688c0.706 14.931 2.516 29.472 5.429 43.708 2.869 14.237 7.018 27.736 12.447 40.54s12.844 24.003 22.246 33.595c9.401 9.592 21.23 17.232 35.531 22.961 14.257 5.686 31.338 8.507 51.244 8.507 19.862 0 36.988-2.821 51.244-8.507 14.301-5.729 26.13-13.369 35.531-22.961s16.817-20.791 22.246-33.595 9.578-26.303 12.491-40.54c2.869-14.237 4.679-28.777 5.385-43.708 0.75-14.975 1.103-29.341 1.103-43.231 0-13.846-0.353-28.256-1.103-43.188-0.706-14.931-2.516-29.515-5.385-43.752-2.913-14.193-7.062-27.649-12.491-40.236-5.429-12.631-12.844-23.742-22.246-33.335-9.401-9.636-21.142-17.188-35.266-22.701-14.080-5.512-31.25-8.247-51.509-8.247-19.906 0-36.988 2.734-51.244 8.247-14.301 5.512-26.13 13.065-35.531 22.701-9.401 9.592-16.817 20.704-22.246 33.335-5.429 12.587-9.578 26.043-12.447 40.236-2.913 14.237-4.723 28.821-5.429 43.752-0.75 14.931-1.103 29.341-1.103 43.188 0 13.889 0.353 28.256 1.103 43.231zM370.185 656.277c0.883-17.622 3.796-34.159 8.651-49.611 4.899-15.452 12.756-28.517 23.614-39.194s26.041-16.016 45.55-16.016 34.692 5.339 45.55 16.016c10.858 10.678 18.714 23.742 23.614 39.194 4.855 15.452 7.768 31.989 8.651 49.611 0.927 17.579 1.368 33.508 1.368 47.745 0 9.202-0.088 19.445-0.265 30.644s-1.103 22.397-2.692 33.595c-1.633 11.198-4.017 22.136-7.062 32.814-3.090 10.678-7.592 20.009-13.55 27.996-6.003 7.986-13.506 14.497-22.51 19.489-9.048 4.948-20.083 7.466-33.103 7.466s-24.055-2.517-33.103-7.466c-9.004-4.992-16.508-11.502-22.466-19.489-6.003-7.986-10.505-17.318-13.594-27.996-3.046-10.678-5.429-21.615-7.018-32.814-1.633-11.198-2.56-22.397-2.737-33.595s-0.265-21.442-0.265-30.644c0-14.237 0.441-30.166 1.368-47.745zM256 544c0-17.673-14.327-32-32-32s-32 14.327-32 32c0 17.673 14.327 32 32 32s32-14.327 32-32zM641.103 234.688c0.706 14.931 2.516 29.472 5.429 43.708 2.869 14.237 7.018 27.736 12.447 40.54s12.844 24.003 22.246 33.595c9.401 9.592 21.23 17.232 35.531 22.961 14.257 5.686 31.338 8.507 51.244 8.507 19.862 0 36.988-2.821 51.244-8.507 14.301-5.729 26.13-13.369 35.531-22.961s16.817-20.791 22.246-33.595 9.578-26.303 12.491-40.54c2.869-14.237 4.679-28.777 5.385-43.708 0.75-14.975 1.103-29.341 1.103-43.231 0-13.846-0.353-28.256-1.103-43.188-0.706-14.931-2.516-29.515-5.385-43.752-2.913-14.193-7.062-27.649-12.491-40.236-5.429-12.631-12.844-23.742-22.246-33.335-9.401-9.636-21.142-17.188-35.266-22.701-14.080-5.512-31.25-8.247-51.509-8.247-19.906 0-36.988 2.734-51.244 8.247-14.301 5.512-26.13 13.065-35.531 22.701-9.401 9.592-16.817 20.704-22.246 33.335-5.429 12.587-9.578 26.043-12.447 40.236-2.913 14.237-4.723 28.821-5.429 43.752-0.75 14.931-1.103 29.341-1.103 43.188 0 13.889 0.353 28.256 1.103 43.231zM690.185 144.277c0.883-17.622 3.796-34.159 8.651-49.611 4.899-15.452 12.756-28.517 23.614-39.194s26.041-16.016 45.55-16.016 34.692 5.339 45.55 16.016c10.858 10.677 18.714 23.742 23.614 39.194 4.855 15.452 7.768 31.989 8.651 49.611 0.927 17.579 1.368 33.508 1.368 47.745 0 9.202-0.088 19.445-0.265 30.644s-1.103 22.397-2.692 33.595c-1.633 11.198-4.017 22.136-7.062 32.814-3.090 10.677-7.592 20.009-13.55 27.996-6.003 7.986-13.506 14.497-22.51 19.489-9.048 4.948-20.083 7.466-33.103 7.466s-24.055-2.517-33.103-7.466c-9.004-4.992-16.508-11.502-22.466-19.489-6.003-7.986-10.505-17.318-13.594-27.996-3.046-10.678-5.429-21.615-7.018-32.814-1.633-11.198-2.56-22.397-2.737-33.595s-0.265-21.442-0.265-30.644c0-14.237 0.441-30.166 1.368-47.745zM576 32c0-17.673-14.327-32-32-32s-32 14.327-32 32c0 17.673 14.327 32 32 32s32-14.327 32-32z" />
<glyph unicode="&#xe60b;" d="M448 704c0 38.4 25.6 64 64 64s64-25.6 64-64-25.6-64-64-64-64 25.6-64 64zM448 576h128v-448h-128v448zM512 896c249.6 0 448-198.4 448-448s-198.4-448-448-448-448 198.4-448 448 198.4 448 448 448zM512 960c-281.6 0-512-230.4-512-512s230.4-512 512-512 512 230.4 512 512-230.4 512-512 512z" />
<glyph unicode="&#xe60c;" d="M499.2 160c-44.8 0-76.8 25.6-76.8 70.4s32 70.4 76.8 70.4 76.8-25.6 76.8-70.4c0-44.8-32-70.4-76.8-70.4zM640 467.2c-25.6-25.6-64-44.8-76.8-57.6-6.4-12.8-6.4-19.2-6.4-32v-38.4h-108.8v51.2c0 51.2 19.2 76.8 51.2 102.4l51.2 38.4c12.8 12.8 32 25.6 32 44.8 0 32-32 51.2-76.8 51.2-51.2 0-89.6-25.6-115.2-51.2l-38.4 96c19.2 19.2 70.4 64 172.8 64s172.8-64 172.8-140.8c0-70.4-25.6-102.4-57.6-128zM512 896c247 0 448-201 448-448s-201-448-448-448-448 201-448 448 201 448 448 448zM512 960c-282.8 0-512-229.2-512-512s229.2-512 512-512 512 229.2 512 512-229.2 512-512 512v0z" />
<glyph unicode="&#xe60d;" d="M320 448v320h-192v-320h-128l224-256 224 256zM512 448h448v-64h-448v64zM512 576h448v-64h-448v64zM512 704h448v-64h-448v64zM512 320h448v-64h-448v64z" />
<glyph unicode="&#xe60e;" d="M757.063 504.059l-277.063 242.438-277.063-242.438c-7.25-6.312-10.937-15.188-10.937-24.062 0-7.5 2.625-15 7.937-21.063 11.625-13.312 31.812-14.656 45.125-3l202.938 177.563v-569.496h64v569.496l202.937-177.563c13.281-11.656 33.5-10.312 45.156 3 11.594 13.188 10.344 33.5-3.031 45.125z" />
<glyph unicode="&#xe60f;" d="M568.059 202.937l242.438 277.063-242.438 277.063c-6.312 7.25-15.188 10.937-24.062 10.937-7.5 0-15-2.625-21.063-7.937-13.312-11.625-14.656-31.812-3-45.125l177.563-202.938h-569.496v-64h569.496l-177.563-202.937c-11.656-13.281-10.312-33.5 3-45.156 13.188-11.594 33.5-10.344 45.125 3.031z" />
<glyph unicode="&#xe610;" d="M768.010 352.003c0 7.5-2.625 15-7.937 21.063-11.625 13.312-31.812 14.656-45.125 3l-234.937-205.563-234.937 205.563c-13.281 11.656-33.5 10.312-45.156-3-11.594-13.188-10.344-33.5 3.031-45.125l277.063-242.438 277.062 242.437c7.25 6.313 10.937 15.188 10.937 24.063zM448 768h64v-640h-64z" />
<glyph unicode="&#xe611;" d="M416.003 191.99c7.5 0 15 2.625 21.063 7.937 13.312 11.625 14.656 31.812 3 45.125l-205.563 234.937 205.563 234.937c11.656 13.281 10.312 33.5-3 45.156-13.188 11.594-33.5 10.344-45.125-3.031l-242.438-277.063 242.437-277.062c6.313-7.25 15.188-10.937 24.063-10.937zM832 512v-64h-640v64z" />
<glyph unicode="&#xe612;" d="M512 864c56.2 0 110.6-11 162-32.6 49.6-21 94-51 132.2-89.2s68.2-82.8 89.2-132.2c21.6-51.4 32.6-105.8 32.6-162s-11-110.6-32.6-162c-21-49.6-51-94-89.2-132.2s-82.8-68.2-132.2-89.2c-51.2-21.6-105.8-32.6-162-32.6s-110.6 11-162 32.6c-49.6 21-94 51-132.2 89.2s-68.2 82.8-89.2 132.2c-21.6 51.2-32.6 105.8-32.6 162s11 110.6 32.6 162c21 49.6 51 94 89.2 132.2s82.8 68.2 132.2 89.2c51.4 21.6 105.8 32.6 162 32.6zM512 928c-265 0-480-215-480-480s215-480 480-480 480 215 480 480-215 480-480 480v0zM576 128v453.4l162.8-162.8 90.6 90.6-272 272c-25 25-65.6 25-90.6 0l-274.8-274.6 90.6-90.6 165.4 165.4v-453.4h128z" />
<glyph unicode="&#xe613;" d="M512 864c56.2 0 110.6-11 162-32.6 49.6-21 94-51 132.2-89.2s68.2-82.8 89.2-132.2c21.6-51.4 32.6-105.8 32.6-162s-11-110.6-32.6-162c-21-49.6-51-94-89.2-132.2s-82.8-68.2-132.2-89.2c-51.2-21.6-105.8-32.6-162-32.6s-110.6 11-162 32.6c-49.6 21-94 51-132.2 89.2s-68.2 82.8-89.2 132.2c-21.6 51.2-32.6 105.8-32.6 162s11 110.6 32.6 162c21 49.6 51 94 89.2 132.2s82.8 68.2 132.2 89.2c51.4 21.6 105.8 32.6 162 32.6zM512 928c-265 0-480-215-480-480s215-480 480-480 480 215 480 480-215 480-480 480v0zM576 768v-453.4l162.8 162.8 90.6-90.6-272-272c-25-25-65.6-25-90.6 0l-274.8 274.6 90.6 90.6 165.4-165.4v453.4h128z" />
<glyph unicode="&#xe614;" d="M198.4 320c-12.8-12.8-12.8-32 0-44.8s32-12.8 44.8 0l268.8 268.8 268.8-268.8c12.8-12.8 32-12.8 44.8 0s12.8 32 0 44.8l-313.6 313.6-313.6-313.6z" />
<glyph unicode="&#xe615;" d="M384 761.6c-12.8 12.8-32 12.8-44.8 0-19.2-12.8-19.2-32-6.4-44.8l275.2-268.8-268.8-268.8c-12.8-12.8-12.8-32 0-44.8s32-12.8 44.8 0l313.6 313.6-313.6 313.6z" horiz-adv-x="1026" />
<glyph unicode="&#xe616;" d="M825.6 576c12.8 12.8 12.8 32 0 44.8s-32 12.8-44.8 0l-268.8-268.8-268.8 275.2c-12.8 12.8-32 12.8-44.8 0s-12.8-38.4 0-51.2l313.6-313.6 313.6 313.6z" />
<glyph unicode="&#xe617;" d="M640 134.4c12.8-12.8 32-12.8 44.8 0s12.8 32 0 44.8l-268.8 268.8 268.8 268.8c12.8 12.8 12.8 32 0 44.8s-32 12.8-44.8 0l-313.6-313.6 313.6-313.6z" horiz-adv-x="1026" />
<glyph unicode="&#xe618;" d="M352 396.8c-12.8-12.8-12.8-32 0-44.8s32-12.8 44.8 0l115.2 115.2 115.2-115.2c12.8-12.8 32-12.8 44.8 0s12.8 32 0 44.8l-160 160-160-160z" />
<glyph unicode="&#xe619;" d="M460.8 608c-12.8 12.8-32 12.8-44.8 0s-12.8-32 0-44.8l115.2-115.2-115.2-115.2c-12.8-12.8-12.8-32 0-44.8s32-12.8 44.8 0l160 160-160 160z" />
<glyph unicode="&#xe61a;" d="M672 499.2c12.8 12.8 12.8 32 0 44.8s-32 12.8-44.8 0l-115.2-115.2-115.2 115.2c-12.8 12.8-32 12.8-44.8 0s-12.8-32 0-44.8l160-160 160 160z" />
<glyph unicode="&#xe61b;" d="M563.2 288c12.8-12.8 32-12.8 44.8 0s12.8 32 0 44.8l-115.2 115.2 115.2 115.2c12.8 12.8 12.8 32 0 44.8s-32 12.8-44.8 0l-160-160 160-160z" />
<glyph unicode="&#xe61c;" d="M64 480l320 224v-192h320c140.8 0 256-115.2 256-256v-64h-64v64c0 108.8-83.2 192-192 192h-320v-192l-320 224z" />
<glyph unicode="&#xe61d;" d="M960 480l-320 224v-192h-320c-140.8 0-256-115.2-256-256v-64h64v64c0 108.8 83.2 192 192 192h320v-192l320 224z" />
<glyph unicode="&#xe61e;" d="M960 544l-384 288v-192c0 0-512 0-512-576v0c64 384 512 384 512 384v-192l384 288z" />
<glyph unicode="&#xe61f;" d="M128 768h64v-704h-64v704zM653.563 693.090c-6.312 7.25-15.188 10.937-24.063 10.937-7.5 0-15-2.625-21.063-7.937-13.312-11.625-14.656-31.812-3-45.125l177.586-202.965h-463.023v-64h462.977l-177.539-202.91c-11.656-13.281-10.312-33.5 3-45.156 13.188-11.594 33.5-10.344 45.125 3.031l242.438 277.062-242.437 277.063z" />
<glyph unicode="&#xe620;" d="M896 64h-64v704h64zM704 447.984h-462.996l177.559 202.93c11.656 13.281 10.312 33.5-3 45.156-13.187 11.594-33.5 10.344-45.125-3.031l-242.437-277.063 242.437-277.063c6.312-7.25 15.188-10.937 24.063-10.937 7.5 0 15 2.625 21.063 7.937 13.312 11.625 14.656 31.812 3 45.125l-177.57 202.945h463.008v64z" />
<glyph unicode="&#xe621;" d="M960 44.8l-198.4 204.8 134.4 134.4h-320v-320l134.4 134.4 204.8-198.4zM64 44.8l198.4 204.8-134.4 134.4h320v-320l-134.4 134.4-204.8-198.4zM960 851.2l-198.4-204.8 134.4-134.4h-320v320l134.4-134.4 204.8 198.4zM64 851.2l198.4-204.8-134.4-134.4h320v320l-134.4-134.4-204.8 198.4z" />
<glyph unicode="&#xe622;" d="M825.6 710.4l134.4-134.4v320h-320l134.4-134.4-262.4-268.8-262.4 268.8 134.4 134.4h-320v-320l134.4 134.4 268.8-262.4-268.8-262.4-134.4 134.4v-320h320l-134.4 134.4 262.4 268.8 262.4-268.8-134.4-134.4h320v320l-134.4-134.4-268.8 262.4z" />
<glyph unicode="&#xe623;" d="M511.938 610c-89.406 0-161.938-72.532-161.938-162 0-89.376 72.532-162.062 161.938-162.062 89.438 0 161.438 72.688 161.438 162.062 0 89.468-72 162-161.438 162zM836.626 354.938l-29.188-70.312 58.938-115.75-72.188-72.188-118.436 55.938-70.312-28.876-35.688-109.25-4.562-14.5h-102.032l-44.156 123.312-70.312 29-115.904-58.688-72.156 72.126 55.876 118.5-28.968 70.25-123.534 40.312v101.968l123.406 44.218 28.97 70.188-51.906 102.468-6.844 13.438 72.062 72.062 118.594-55.844 70.218 29.032 35.656 109.188 4.594 14.468h102l44.188-123.468 70.126-29.032 116.062 58.812 72.126-72.062-55.876-118.406 28.876-70.344 123.75-40.25v-101.938l-123.376-44.374z" />
<glyph unicode="&#xe624;" d="M928 720c0-44-36-80-80-80h-672c-44 0-80 36-80 80v0c0 44 36 80 80 80h672c44 0 80-36 80-80v0zM928 432c0-44-36-80-80-80h-672c-44 0-80 36-80 80v0c0 44 36 80 80 80h672c44 0 80-36 80-80v0zM928 144c0-44-36-80-80-80h-672c-44 0-80 36-80 80v0c0 44 36 80 80 80h672c44 0 80-36 80-80v0z" />
<glyph unicode="&#xe625;" d="M592 448c0-44.184-35.818-80-80-80s-80 35.816-80 80 35.818 80 80 80 80-35.816 80-80zM512 208c-44.182 0-80-35.816-80-80s35.818-80 80-80 80 35.816 80 80-35.818 80-80 80zM512 848c-44.182 0-80-35.816-80-80s35.818-80 80-80 80 35.816 80 80-35.818 80-80 80z" />
<glyph unicode="&#xe626;" d="M1024 352l-192 192v288h-128v-160l-192 192-512-512v-32h128v-320h320v192h128v-192h320v320h128z" />
<glyph unicode="&#xe627;" d="M625.8 240c-33.2-16.8-69-25.2-106.4-25.2-63.2 0-122.8 24.8-167.6 69.6s-69.6 104.4-69.6 167.6c0 1.4 0 6.8 0 12l0.2 16.2h101.6l-159.8 160-160.2-160.2h99.6v-16.6c0-4.6 0-10 0-11.6 0-95 37-184.4 104.2-251.6s156.6-104.2 251.6-104.2c68.8 0 135.8 19.8 193.2 57l-86.8 87zM868.4 416h-6.2l0.6 17.2c0.2 3.6 0.2 7.4 0.2 11 0 95-37 184.4-104.2 251.6-67.4 67.2-156.8 104.2-251.8 104.2-74.2 0-145.2-22.6-205.6-65.4l85.8-85.8c36.2 21.2 77.6 32.6 119.6 32.6 130.8 0 237.2-106.4 237.2-237.2 0-4-0.2-8.2-0.4-13.2l-0.8-15h-102.8l159.8-160 160.2 160h-91.6z" />
<glyph unicode="&#xe628;" d="M682.2 518l-106.2-105.8v291.8h-128v-291.8l-106 105.8-85.4-85.4 228.4-229.2c7.4-7.2 17-11.2 27.2-11.2 10.4 0 20 4 27.2 11.4l228.2 229-85.4 85.4zM509.4 928c26.6 0 48-21.4 48-48s-21.4-48-48-48c-26.6 0-48 21.4-48 48s21.4 48 48 48zM726.6 870.4c28 0 50.6-22.6 50.6-50.6s-22.6-50.6-50.6-50.6c-28 0-50.6 22.6-50.6 50.6s22.8 50.6 50.6 50.6zM883.8 713.4c28 0 50.6-22.6 50.6-50.6s-22.6-50.6-50.6-50.6c-28 0-50.6 22.6-50.6 50.6 0 27.8 22.8 50.6 50.6 50.6zM944 496c26.6 0 48-21.4 48-48s-21.4-48-48-48c-26.6 0-48 21.4-48 48s21.4 48 48 48zM883.8 281.4c26.6 0 48-21.4 48-48s-21.4-48-48-48c-26.6 0-48 21.4-48 48 0 26.4 21.6 48 48 48zM726.6 124.2c26.6 0 48-21.4 48-48s-21.4-48-48-48c-26.6 0-48 21.4-48 48 0 26.4 21.6 48 48 48zM512 64c26.6 0 48-21.4 48-48s-21.4-48-48-48c-26.6 0-48 21.4-48 48s21.4 48 48 48zM297.4 124.2c26.6 0 48-21.4 48-48s-21.4-48-48-48c-26.6 0-48 21.4-48 48 0 26.4 21.4 48 48 48zM140.2 281.4c26.6 0 48-21.4 48-48s-21.4-48-48-48c-26.6 0-48 21.4-48 48 0 26.4 21.4 48 48 48zM80 496c26.6 0 48-21.4 48-48s-21.4-48-48-48-48 21.4-48 48c0 26.6 21.4 48 48 48zM140.2 710.8c26.6 0 48-21.4 48-48s-21.4-48-48-48c-26.6 0-48 21.4-48 48 0 26.4 21.4 48 48 48zM297.4 867.8c26.6 0 48-21.4 48-48s-21.4-48-48-48c-26.6 0-48 21.4-48 48s21.4 48 48 48z" />
<glyph unicode="&#xe629;" d="M509.4 928c26.6 0 48-21.4 48-48s-21.4-48-48-48c-26.6 0-48 21.4-48 48s21.4 48 48 48zM726.6 870.4c28 0 50.6-22.6 50.6-50.6s-22.6-50.6-50.6-50.6c-28 0-50.6 22.6-50.6 50.6s22.8 50.6 50.6 50.6zM883.8 713.4c28 0 50.6-22.6 50.6-50.6s-22.6-50.6-50.6-50.6c-28 0-50.6 22.6-50.6 50.6 0 27.8 22.8 50.6 50.6 50.6zM944 496c26.6 0 48-21.4 48-48s-21.4-48-48-48c-26.6 0-48 21.4-48 48s21.4 48 48 48zM883.8 281.4c26.6 0 48-21.4 48-48s-21.4-48-48-48c-26.6 0-48 21.4-48 48 0 26.4 21.6 48 48 48zM726.6 124.2c26.6 0 48-21.4 48-48s-21.4-48-48-48c-26.6 0-48 21.4-48 48 0 26.4 21.6 48 48 48zM512 64c26.6 0 48-21.4 48-48s-21.4-48-48-48c-26.6 0-48 21.4-48 48s21.4 48 48 48zM297.4 124.2c26.6 0 48-21.4 48-48s-21.4-48-48-48c-26.6 0-48 21.4-48 48 0 26.4 21.4 48 48 48zM140.2 281.4c26.6 0 48-21.4 48-48s-21.4-48-48-48c-26.6 0-48 21.4-48 48 0 26.4 21.4 48 48 48zM80 496c26.6 0 48-21.4 48-48s-21.4-48-48-48-48 21.4-48 48c0 26.6 21.4 48 48 48zM140.2 710.8c26.6 0 48-21.4 48-48s-21.4-48-48-48c-26.6 0-48 21.4-48 48 0 26.4 21.4 48 48 48zM297.4 867.8c26.6 0 48-21.4 48-48s-21.4-48-48-48c-26.6 0-48 21.4-48 48s21.4 48 48 48zM864 448l-151.4-151.4-151 151.4h103.8c0.2 2.6 0.2 5.2 0.2 7.6 0 76.6-62.4 138.8-138.8 138.8-24.6 0-48.8-6.6-70-19l-10.6-6.2-78.2 78.2 15.4 11c42 29.8 91.6 45.6 143.4 45.6 66.4 0 128.8-25.8 175.6-72.8 47-47 72.8-109.2 72.8-175.6 0-2.6 0-5.2-0.2-7.6h89zM641.6 256.6l-65 65-10.4-5.2c-19.4-9.8-40.4-14.8-62.2-14.8-37 0-71.8 14.4-98.2 40.8-26.2 26.2-40.8 61.2-40.8 98.2 0 1 0 4.4 0 7.6h97.2l-150.8 151.2-151.4-151.4h95.8c0-3 0-6.6 0-7.6 0-66.4 25.8-128.6 72.8-175.6s109.2-72.8 175.6-72.8c48 0 94.6 13.8 134.8 39.8l16.6 10.8-14 14z" />
<glyph unicode="&#xe62a;" d="M512 864c56.2 0 110.6-11 162-32.6 49.6-21 94-51 132.2-89.2s68.2-82.8 89.2-132.2c21.6-51.4 32.6-105.8 32.6-162s-11-110.6-32.6-162c-21-49.6-51-94-89.2-132.2s-82.8-68.2-132.2-89.2c-51.2-21.6-105.8-32.6-162-32.6s-110.6 11-162 32.6c-49.6 21-94 51-132.2 89.2s-68.2 82.8-89.2 132.2c-21.6 51.2-32.6 105.8-32.6 162s11 110.6 32.6 162c21 49.6 51 94 89.2 132.2s82.8 68.2 132.2 89.2c51.4 21.6 105.8 32.6 162 32.6zM512 928c-265 0-480-215-480-480s215-480 480-480 480 215 480 480-215 480-480 480v0zM605.4 250.4l-120.2 120.2c-27.8 27.8-37.4 62-37.2 85.2v248.2h128v-243.2l119.8-119.8-90.4-90.6z" />
<glyph unicode="&#xe62b;" d="M512 864c56.2 0 110.6-11 162-32.6 49.6-21 94-51 132.2-89.2s68.2-82.8 89.2-132.2c21.6-51.4 32.6-105.8 32.6-162s-11-110.6-32.6-162c-21-49.6-51-94-89.2-132.2s-82.8-68.2-132.2-89.2c-51.2-21.6-105.8-32.6-162-32.6s-110.6 11-162 32.6c-49.6 21-94 51-132.2 89.2s-68.2 82.8-89.2 132.2c-21.6 51.2-32.6 105.8-32.6 162s11 110.6 32.6 162c21 49.6 51 94 89.2 132.2s82.8 68.2 132.2 89.2c51.4 21.6 105.8 32.6 162 32.6zM512 928c-265 0-480-215-480-480s215-480 480-480 480 215 480 480-215 480-480 480v0zM682.2 518l-106.2-105.8v291.8h-128v-291.8l-106 105.8-85.4-85.4 228.4-229.2c7.4-7.2 17-11.2 27.2-11.2 10.4 0 20 4 27.2 11.4l228.4 229.2-85.6 85.2z" />
<glyph unicode="&#xe62c;" d="M0 64h1024v-64h-1024zM1024 192v-64h-1024v64l128 256h256v-128h256v128h256zM224 640l288 288 288-288h-224v-256h-128v256z" />
<glyph unicode="&#xe62d;" d="M892.268 573.51c2.444 11.11 3.732 22.648 3.732 34.49 0 88.366-71.634 160-160 160-14.222 0-28.014-1.868-41.132-5.352-24.798 77.352-97.29 133.352-182.868 133.352-87.348 0-161.054-58.336-184.326-138.17-22.742 6.622-46.792 10.17-71.674 10.17-141.384 0-256-114.616-256-256 0-141.388 114.616-256 256-256h128v-192h256v192h224c88.366 0 160 71.632 160 160 0 78.72-56.854 144.162-131.732 157.51zM576 320v-192h-128v192h-160l224 224 224-224h-160z" />
<glyph unicode="&#xe62e;" d="M891.004 599.94c-3.242 128.698-108.458 232.060-237.862 232.060-75.792 0-143.266-35.494-186.854-90.732-24.442 31.598-62.69 51.96-105.708 51.96-73.81 0-133.642-59.874-133.642-133.722 0-6.436 0.48-12.76 1.364-18.954-11.222 2.024-22.766 3.138-34.57 3.138-106.998 0.002-193.732-86.786-193.732-193.842 0-107.062 86.734-193.848 193.73-193.848h99.76l218.51-218.51 218.51 218.51 119.482 0.012c96.138 0.184 174.008 78.212 174.008 174.446 0 82.090-56.678 150.9-132.996 169.482zM512 128l-192 192h128v192h128v-192h128l-192-192z" />
<glyph unicode="&#xe62f;" d="M1024 302.458c0 82.090-56.678 150.9-132.996 169.48-3.242 128.7-108.458 232.062-237.862 232.062-75.792 0-143.266-35.494-186.854-90.732-24.442 31.598-62.69 51.96-105.708 51.96-73.81 0-133.642-59.874-133.642-133.722 0-6.436 0.48-12.76 1.364-18.954-11.222 2.024-22.766 3.138-34.57 3.138-106.998 0.002-193.732-86.786-193.732-193.842 0-107.062 86.734-193.848 193.73-193.848l656.262 0.012c96.138 0.184 174.008 78.212 174.008 174.446z" />
<glyph unicode="&#xe630;" d="M896 704h-768v64h768v-64zM704 576h-576v64h576v-64zM896 448h-768v64h768v-64zM576 320h-448v64h448v-64zM704 64h-576v64h576v-64zM896 192h-768v64h768v-64z" />
<glyph unicode="&#xe631;" d="M128 768h768v-64h-768v64zM128 512h768v-64h-768v64zM256 384h512v-64h-512v64zM256 128h512v-64h-512v64zM256 640h512v-64h-512v64zM128 256h768v-64h-768v64z" />
<glyph unicode="&#xe632;" d="M128 768h768v-64h-768v64zM320 640h576v-64h-576v64zM128 512h768v-64h-768v64zM448 384h448v-64h-448v64zM320 128h576v-64h-576v64zM128 256h768v-64h-768v64z" />
<glyph unicode="&#xe633;" d="M128 768h768v-64h-768v64zM128 640h768v-64h-768v64zM128 384h768v-64h-768v64zM128 128h768v-64h-768v64zM128 512h768v-64h-768v64zM128 256h768v-64h-768v64z" />
<glyph unicode="&#xe634;" d="M896 896v-64h-128l-320-768h128v-64h-448v64h128l320 768h-128v64z" />
<glyph unicode="&#xe635;" d="M707.88 475.348c37.498 44.542 60.12 102.008 60.12 164.652 0 141.16-114.842 256-256 256h-320v-896h384c141.158 0 256 114.842 256 256 0 92.956-49.798 174.496-124.12 219.348zM384 768h101.5c55.968 0 101.5-57.42 101.5-128s-45.532-128-101.5-128h-101.5v256zM543 128h-159v256h159c58.45 0 106-57.42 106-128s-47.55-128-106-128z" />
<glyph unicode="&#xe636;" d="M799.596 943.792c-90.526 0-148.62 16.208-241.848 16.208-301.284 0-441.792-171.584-441.792-345.872 0-102.678 48.64-136.458 144.564-136.458-6.758 14.864-18.914 31.080-18.914 104.034 0 204.010 77.006 263.458 175.636 267.51 0 0-80.918-793.374-315.778-888.542v-24.672h316.594l108.026 512h197.844l44.072 128h-214.908l51.944 246.19c59.446-12.156 117.542-24.316 167.532-24.316 62.148 0 118.894 18.914 149.968 162.126-37.826-12.16-78.362-16.208-122.94-16.208z" />
<glyph unicode="&#xe637;" d="M538.4 768c0.2 0 25.4-0.8 37.8-18.4l52.2 37c-31.2 44.2-84 45.4-90 45.4-79.6 0-140.4-46-159.4-122l-38-198h-133l-16-64h136.8l-45.8-238.6c-7.8-38.6-21-63.6-39.6-74.2-18-10.2-44.4-9.4-78.6 2.2l-20.8-60.6c25-8.6 48-12.8 69-12.8 23.2 0 44 5.2 62 15.6 35.4 20.4 59 59.8 70.6 117.6l48 250.8h166.4l16 64h-169.8l35.2 184.2c16.2 64.8 73.2 71.8 97 71.8zM576 335.6l113.2-113.2-113.2-113.2 45.2-45.2 113.2 113.2 113.2-113.2 45.2 45.2-113.2 113.2 113.2 113.2-45.2 45.2-113.2-113.2-113.2 113.2z" />
<glyph unicode="&#xe638;" d="M0.48 290.166c5.358-94.098 78.976-177.606 182.558-197.134 120.462-22.676 220.18 52.446 241.228 164.356 21.074 111.944-44.44 218.192-164.882 240.876-9.624 1.812-19.084 2.024-28.542 2.656 0.344 50.916 145.764 218.474 240.416 306.094h-68.012c-362.906-183.1-408.774-462.766-402.766-516.848zM1024 807.012h-67.998c-362.902-183.1-408.786-462.764-402.762-516.846 5.328-94.098 78.958-177.606 182.546-197.134 120.466-22.676 220.144 52.446 241.226 164.356 21.082 111.944-44.454 218.192-164.9 240.876-9.596 1.812-19.056 2.024-28.542 2.656 0.366 50.916 145.794 218.472 240.43 306.092z" />
<glyph unicode="&#xe639;" d="M1023.52 605.838c-5.33 94.098-78.968 177.61-182.55 197.132-120.466 22.676-220.178-52.442-241.23-164.352-21.064-111.94 44.44-218.186 164.89-240.876 9.604-1.816 19.070-2.026 28.548-2.658-0.352-50.926-145.786-218.472-240.428-306.098h68.012c362.896 183.108 408.772 462.774 402.758 516.852zM0 88.988h68.012c362.892 183.106 408.778 462.772 402.75 516.852-5.324 94.098-78.96 177.612-182.542 197.13-120.478 22.676-220.162-52.436-241.23-164.346-21.084-111.94 44.436-218.188 164.892-240.876 9.596-1.816 19.058-2.028 28.548-2.658-0.35-50.928-145.784-218.474-240.43-306.102z" />
<glyph unicode="&#xe63a;" d="M832.886 672l-361.182-361.182-152.594 152.592-127.11-127.112 279.704-279.704 488.296 488.3zM274.674 620.406h-53.892l-15.004 42.564h-75.33l-15.004-42.564h-51.444l79.616 211.594h51.444l79.614-211.594zM194.448 701.552l-26.334 75.942-26.336-75.942h52.67zM447.226 634.492c-13.474-9.798-32.458-13.78-54.2-13.78h-86.354v211.288h71.96c19.292 0 37.97-1.532 52.056-8.88 14.086-7.35 26.946-21.128 26.946-44.402s-15.004-41.032-30.928-46.544v-0.612c26.336-6.43 43.79-24.192 43.79-50.22 0.002-23.27-9.796-37.050-23.27-46.85zM398.54 790.968c-5.818 3.674-11.33 4.288-22.048 4.288h-20.516v-48.688h19.292c11.024 0 17.456 0.612 23.274 4.594 6.124 4.286 10.41 9.798 10.41 20.21-0.002 10.102-4.29 15.92-10.412 19.596zM409.562 706.452c-7.35 5.206-15.618 5.818-26.334 5.818h-27.254v-53.894h27.254c10.716 0 18.984 0.612 26.334 5.818 7.348 4.9 10.716 11.942 10.716 21.128 0.002 9.494-3.368 15.926-10.716 21.13zM685.77 642.76c-10.716-11.024-33.070-28.784-76.246-28.784-62.162 0-110.85 41.034-110.85 109.012 0 68.286 49.3 109.012 110.85 109.012 43.482 0 67.060-18.066 72.572-23.884l-15.31-41.032c-3.98 5.206-26.64 22.046-54.506 22.046-35.828 0-63.386-23.884-63.386-65.224s28.784-64.916 63.386-64.916c26.334 0 45.318 10.412 56.956 22.354l16.534-38.584z" />
<glyph unicode="&#xe63b;" d="M128 320h768v-128h-768zM273.312 547.266h-46.586v-75.65c0-17.954 2.562-22.226 5.984-26.070 2.992-3.422 7.266-5.126 16.242-5.126 10.68 0 20.508 3.844 20.508 3.844l3.422-53.42c-5.124-1.282-23.93-6.844-48.718-6.844-24.368 0-40.602 7.272-51.29 19.664-10.688 12.39-14.96 29.914-14.96 61.968v81.632h-29.914v51.71h29.914v57.274h68.812v-57.274h46.586v-51.708zM502.382 477.602h-150.008c2.992-30.344 26.070-44.024 53.844-44.024 27.36 0 51.29 11.968 63.258 20.084l26.922-35.468c-6.836-5.132-34.616-34.194-100.008-34.194-64.96 0-112.398 40.18-112.398 109.844s51.29 109.406 113.68 109.406c62.398 0 105.562-41.454 105.562-103 0-10.258-0.852-22.648-0.852-22.648zM439.554 516.492c-0.422 19.236-14.524 42.312-43.164 42.312-28.204 0-42.734-22.226-43.594-42.312h86.758zM751.976 388.706h-77.79l-47.438 70.090-47.868-70.090h-77.782l84.624 109.834-75.648 100.868h77.352l39.32-63.258 38.89 63.258h77.36l-75.648-100.868 84.628-109.834zM896 547.266h-46.586v-75.65c0-17.954 2.562-22.226 5.984-26.070 2.992-3.422 7.266-5.126 16.242-5.126 10.68 0 20.516 3.844 20.516 3.844l3.414-53.42c-5.124-1.282-23.93-6.844-48.718-6.844-24.36 0-40.602 7.272-51.29 19.664-10.68 12.39-14.954 29.914-14.954 61.968v81.632h-29.922v51.71h29.922v57.274h68.804v-57.274h46.588v-51.708z" />
<glyph unicode="&#xe63c;" d="M224 832h480c59.214 0 96-34.332 96-89.6v-166.4h64v166.4c0 89.6-64 153.6-160 153.6h-544v-320h64v256zM800 224v-160h-576v256h-64v-320h704v320h-64v-64zM64 512h896v-96h-896zM681.374 640l-41.374-41.374-64 64-64-64-64 64-64-64-64 64-75.314-75.312 22.628-22.628 52.686 52.688 64-64 64 64 64-64 64 64 64-64 64 64 52.688-52.688 22.624 22.628-75.312 75.312zM267.314 276.688l52.686 52.686 64-64 64 64 64-64 64 64 64-64 64 64 52.688-52.686 22.624 22.624-75.312 75.314-64-64-64 64-64-64-64 64-64-64-64 64-75.314-75.314z" />
<glyph unicode="&#xe63d;" d="M579.804 291.2c-28.312 0-56.626 10.748-78.188 32.31l-80.192 80.22c-12.5 12.5-12.5 32.752 0 45.252s32.75 12.5 45.25 0l80.192-80.22c18.126-18.188 47.75-18.188 65.876 0l205.666 205.664c18.188 18.156 18.188 47.72 0 65.876l-115.17 115.14c-18.126 18.124-47.75 18.124-65.876 0l-57.56-57.564c-12.5-12.5-32.752-12.5-45.252 0s-12.5 32.75 0 45.25l57.56 57.56c41.752 41.752 114.628 41.752 156.38 0l115.168-115.136c43.126-43.126 43.126-113.25 0-156.376l-205.666-205.666c-21.56-21.56-49.876-32.312-78.188-32.312zM398.82 110.148c-29.564 0-57.314 11.5-78.19 32.376l-115.17 115.106c-43.126 43.126-43.126 113.25 0 156.406l205.664 205.632c43.126 43.126 113.25 43.126 156.376 0l104.44-104.44c12.5-12.5 12.5-32.748 0-45.248s-32.752-12.5-45.252 0l-104.44 104.44c-18.124 18.124-47.748 18.124-65.874 0l-205.664-205.636c-18.126-18.156-18.188-47.72 0-65.906l115.17-115.106c18.126-18.126 47.75-18.126 65.876 0l57.546 57.546c12.5 12.5 32.752 12.5 45.252 0s12.5-32.75 0-45.25l-57.546-57.546c-20.876-20.876-48.626-32.376-78.188-32.376z" />
<glyph unicode="&#xe63e;" d="M512 253.726c-12.496 12.496-32.756 12.5-45.254 0l-67.88-67.88c-12.466-12.464-32.794-12.464-45.256 0l-135.764 135.76c-12.46 12.464-12.46 32.794 0 45.256l226.274 226.278c12.5 12.5 12.496 32.76 0 45.254s-32.756 12.5-45.254 0l-226.274-226.278c-37.432-37.432-37.432-98.332 0-135.764l135.764-135.764c37.432-37.432 98.332-37.432 135.764 0l67.88 67.88c12.5 12.5 12.5 32.76 0 45.256zM512 706.274c12.496-12.496 32.756-12.5 45.254 0l67.88 67.88c12.464 12.464 32.794 12.464 45.256 0l135.764-135.76c12.46-12.466 12.46-32.794 0-45.256l-226.274-226.278c-12.5-12.5-12.496-32.76 0-45.254s32.756-12.5 45.254 0l226.274 226.274c37.432 37.432 37.432 98.332 0 135.764l-135.764 135.764c-37.432 37.432-98.332 37.432-135.764 0l-67.88-67.876c-12.5-12.5-12.5-32.76 0-45.256z" />
<glyph unicode="&#xe63f;" d="M470.69 291.2c-28.312 0-56.626 10.748-78.188 32.31l-80.188 80.22c-12.5 12.5-12.5 32.752 0 45.252s32.75 12.5 45.25 0l80.194-80.22c18.126-18.188 47.75-18.188 65.876 0l205.664 205.664c18.188 18.156 18.188 47.72 0 65.876l-115.17 115.14c-18.126 18.124-47.75 18.124-65.876 0l-57.56-57.564c-12.5-12.5-32.75-12.5-45.25 0s-12.5 32.75 0 45.25l57.56 57.56c41.748 41.752 114.624 41.752 156.374 0l115.17-115.136c43.126-43.126 43.126-113.25 0-156.376l-205.666-205.666c-21.56-21.56-49.876-32.312-78.188-32.312zM289.7 110.148c-29.56 0-57.31 11.5-78.186 32.376l-115.17 115.106c-43.126 43.126-43.126 113.25 0 156.406l205.664 205.632c43.126 43.126 113.25 43.126 156.376 0l104.44-104.44c12.5-12.5 12.5-32.748 0-45.248s-32.752-12.5-45.252 0l-104.44 104.44c-18.124 18.124-47.748 18.124-65.874 0l-205.666-205.636c-18.126-18.156-18.188-47.72 0-65.906l115.17-115.106c18.126-18.126 47.75-18.126 65.876 0l57.546 57.546c12.5 12.5 32.75 12.5 45.25 0s12.5-32.75 0-45.25l-57.546-57.546c-20.876-20.876-48.626-32.376-78.188-32.376zM576 192h384v-128h-384v128z" />
<glyph unicode="&#xe640;" d="M832 256v128h-128v-128h-128v-128h128v-128h128v128h128v128zM470.69 355.2c-28.312 0-56.626 10.748-78.188 32.31l-80.188 80.22c-12.5 12.5-12.5 32.752 0 45.252s32.75 12.5 45.25 0l80.194-80.22c18.126-18.188 47.75-18.188 65.876 0l205.664 205.664c18.188 18.156 18.188 47.72 0 65.876l-115.17 115.14c-18.126 18.124-47.75 18.124-65.876 0l-57.56-57.564c-12.5-12.5-32.75-12.5-45.25 0s-12.5 32.75 0 45.25l57.56 57.56c41.748 41.752 114.624 41.752 156.374 0l115.17-115.136c43.126-43.126 43.126-113.25 0-156.376l-205.666-205.666c-21.56-21.56-49.876-32.312-78.188-32.312zM289.7 174.148c-29.56 0-57.31 11.5-78.186 32.376l-115.17 115.106c-43.126 43.126-43.126 113.25 0 156.406l205.664 205.632c43.126 43.126 113.25 43.126 156.376 0l104.44-104.44c12.5-12.5 12.5-32.748 0-45.248s-32.752-12.5-45.252 0l-104.44 104.44c-18.124 18.124-47.748 18.124-65.874 0l-205.666-205.636c-18.126-18.156-18.188-47.72 0-65.906l115.17-115.106c18.126-18.126 47.75-18.126 65.876 0l57.546 57.546c12.5 12.5 32.75 12.5 45.25 0s12.5-32.75 0-45.25l-57.546-57.546c-20.876-20.876-48.626-32.376-78.188-32.376z" />
<glyph unicode="&#xe641;" d="M869.054 386.332c88.54 88.54 106.276 219.976 55.414 326.94l-210.112-210.108-135.764 135.766 210.112 210.11c-106.964 50.86-238.404 33.12-326.94-55.42s-106.28-219.976-55.416-326.94l-303.834-303.84c-36.99-36.988-36.992-96.964-0.004-133.954l1.812-1.812c36.994-36.992 96.968-36.99 133.96 0l303.828 303.846c106.966-50.86 238.404-33.126 326.94 55.414z" />
<glyph unicode="&#xe642;" d="M853.4 736h-484c-23.4 0-53.8-15.6-67.4-34.8l-163.8-218.4c-13.6-19.2-13.6-50.4 0-69.6l163.8-218.4c13.6-19.2 44-34.8 67.4-34.8h484c23.4 0 42.6 19.2 42.6 42.6v490.8c0 23.4-19.2 42.6-42.6 42.6v0zM797.2 578.8l-130.8-130.8 130.8-130.8-90.6-90.4-130.6 130.8-130.8-130.8-90.4 90.6 130.8 130.6-130.8 130.8 90.6 90.4 130.6-130.8 130.8 130.8 90.4-90.4z" />
<glyph unicode="&#xe643;" d="M256 896h512v-128h-512zM960 704h-896c-35.2 0-64-28.8-64-64v-320c0-35.2 28.796-64 64-64h192v-256h512v256h192c35.2 0 64 28.8 64 64v320c0 35.2-28.8 64-64 64zM704 64h-384v320h384v-320zM974.4 608c0-25.626-20.774-46.4-46.398-46.4-25.626 0-46.402 20.774-46.402 46.4s20.776 46.4 46.402 46.4c25.626 0 46.398-20.774 46.398-46.4z" />
<glyph unicode="&#xe644;" d="M1024 896h-960v-192l263.766-263.762c36.008-36.008 56.234-84.844 56.234-135.765v-368.473l320 128v240.473c0 50.922 20.227 99.758 56.234 135.766l263.766 263.761v192z" />
<glyph unicode="&#xe645;" d="M416 128c-17.688 0-32 14.312-32 32v320c0 17.688 14.312 32 32 32s32-14.312 32-32v-320c0-17.688-14.312-32-32-32zM608 128c-17.688 0-32 14.312-32 32v320c0 17.688 14.312 32 32 32s32-14.312 32-32v-320c0-17.688-14.312-32-32-32zM832 768h-192v64c0 35.348-28.652 64-64 64h-128c-35.348 0-64-28.652-64-64v-64h-192c-35.348 0-64-28.652-64-64v-64c0-35.344 28.652-64 64-64v-480c0-53.020 42.98-96 96-96h448c53.020 0 96 42.98 96 96v480c35.348 0 64 28.656 64 64v64c0 35.348-28.652 64-64 64zM448 832h128v-64h-128v64zM768 96c0-17.645-14.355-32-32-32h-448c-17.645 0-32 14.355-32 32v480h512v-480zM832 640h-640v64h640v-64z" />
<glyph unicode="&#xe646;" d="M416 512c-17.6 0-32-14.4-32-32v-320c0-17.6 14.4-32 32-32s32 14.4 32 32v320c0 17.6-14.4 32-32 32zM608 512c-17.6 0-32-14.4-32-32v-198.8c19.8 17.2 41.2 31.2 64 42.2v156.6c0 17.6-14.4 32-32 32zM503.8 64h-215.8c-17.6 0-32 14.4-32 32v480h512v-224c22 0 43.4-2.2 64-6.6v230.6c35.4 0 64 28.6 64 64v64c0 35.4-28.6 64-64 64h-192v64c0 35.4-28.6 64-64 64h-128c-35.4 0-64-28.6-64-64v-64h-192c-35.4 0-64-28.6-64-64v-64c0-35.4 28.6-64 64-64v-480c0-53 43-96 96-96h262c-1.8 2-3.6 3.8-5.2 5.8-18 20.6-31.4 41-41 58.2zM448 832h128v-64h-128v64zM192 640v64h640v-64h-640zM768 288c-168 0-224-160-224-160s56-160 224-160 224 160 224 160-56 160-224 160zM768 0c-70.6 0-128 57.4-128 128s57.4 128 128 128 128-57.4 128-128-57.4-128-128-128zM768 192c-35.4 0-64-28.6-64-64s28.6-64 64-64 64 28.6 64 64-28.6 64-64 64z" />
<glyph unicode="&#xe647;" d="M549.376 587.082c5.188-9.064 7.75-20.128 7.75-33.254 0-29.754-6.438-60.822-19.376-93.388-12.876-32.504-27.938-60.32-45.562-83.386-17.624-22.942-32.062-34.694-43.25-34.694-5.938 0-11.062 3.44-15.25 10.064-4.188 6.69-6.062 14.44-6.062 23.566 0 14.876 3.124 34.754 9.438 59.946 6.25 25.378 14.812 51.196 25.688 77.448 11 26.128 22.376 47.256 34.25 63.322 11.938 15.94 23.438 24.066 34.688 24.066 6.748 0 12.622-4.688 17.686-13.69zM960 447.938c0-247.41-200.5-447.938-447.876-447.938-247.436 0-448.124 200.528-448.124 447.938 0 247.472 200.688 448.062 448.124 448.062 247.376 0 447.876-200.59 447.876-448.062zM833.75 336.61h-22.376c-17.876-46.818-43.25-85.45-76.25-115.516-32.938-30.316-69-52.196-108.188-65.634-39.062-13.502-76.938-20.126-113.812-20.126-39.376 0-76.25 6.562-110.75 19.69-34.376 13.19-64.812 32.692-91.312 58.632-26.438 25.442-46.938 56.008-61.124 91.076-14.312 35.004-21.562 74.322-21.562 117.39 0 56.882 12.812 111.39 38.312 163.21 25.438 52.070 62.75 93.888 111.688 125.83 49.062 31.692 106.376 47.694 172.188 47.694 37 0 70.25-6.062 99.812-18.376 29.376-12.252 53.812-29.254 73.688-50.756 19.938-21.378 34.688-46.070 44.624-73.886 10.188-27.878 15.188-56.758 15.188-86.95 0-33.442-5.312-64.072-16.25-92.202-10.938-28.254-24.938-52.070-42.124-72.448-17.188-20.126-34.688-35.506-52.75-46.006-18.124-10.502-33.624-15.752-46.75-15.752-8 0-14.812 2.688-20.25 8.376-5.438 5.626-8.25 12.19-8.25 19.504 0 13.314 3.438 32.566 10.188 57.632l67.376 229.156-88.75-3.562-12.75-45.506c-2.938 38.944-20 58.634-51.376 58.634-16.75 0-35.876-7.126-57.188-21.378-21.376-14.064-42.124-33.566-62.376-59.070-20.376-25.442-36.876-54.32-49.624-86.7-12.812-32.818-19.376-66.948-19.376-102.954 0-19.564 4.812-37.942 14.5-55.006 9.688-17.004 25.312-25.378 46.624-25.378 26.876 0 49.438 10.5 67.562 31.942 18.062 21.066 38 50.632 59.876 88.386-7-26.378-10.5-45.63-10.5-57.758 0-11.752 4.624-24.942 14-40.068 9.312-15.064 29.25-22.502 59.812-22.502 32.688 0 62.75 7 90.124 21.502 27.376 14.44 50.5 34.068 69.438 58.57 19.188 24.504 33.688 52.508 43.688 84.012 10.124 31.504 15.188 63.198 15.188 95.452 0 32.066-5.25 62.382-15.876 91.388-10.624 29.066-26.438 55.006-47.562 78.198-21.376 22.94-48.562 41.444-81.624 55.132-33.124 13.752-71.938 20.69-116.75 20.69-51.75 0-99.562-9.126-143.25-26.692-43.562-17.752-80.812-42.568-112.062-74.636-31.062-31.816-55.124-68.822-71.688-110.89-16.624-42.256-24.938-86.886-24.938-133.894 0-47.194 8.25-90.574 24.812-129.956 16.438-39.818 39.188-73.51 68.25-101.764 28.938-28.192 63.124-50.008 102.75-65.384 39.624-15.314 81.688-23.128 126.438-23.128 30.876 0 61.812 3.876 92.188 11.376 30.438 7.814 59.938 20.126 88.812 37.006 28.876 17.064 54.688 39.254 77.812 66.632 15.812 19.254 28.876 37.63 38.5 55.57 9.626 17.944 17.812 35.008 24 51.198z" />
<glyph unicode="&#xe648;" d="M896 768h-768c-35.348 0-64-28.652-64-64v-576c0-35.344 28.652-64 64-64h768c35.348 0 64 28.656 64 64v576c0 35.348-28.652 64-64 64zM726.625 342.625c-12.5 12.5-32.75 12.5-45.25 0s-12.5-32.75 0-45.25l169.375-169.375h-677.5l169.375 169.375c12.5 12.5 12.5 32.75 0 45.25s-32.75 12.5-45.25 0l-169.375-169.375v487.332l384-352.020 384 352.020v-487.332l-169.375 169.375zM175.363 704h673.273l-336.637-308.594-336.637 308.594z" />
<glyph unicode="&#xe649;" d="M704 768h-384l-320-384v-256c0-35.346 28.654-64 64-64h896c35.348 0 64 28.654 64 64v256l-320 384zM768 384l-128-128h-256l-128 128h-172.69l266.666 320h324.048l266.666-320h-172.69z" />
<glyph unicode="&#xe64a;" d="M704 768h-384l-320-384v-256c0-35.346 28.654-64 64-64h896c35.348 0 64 28.654 64 64v256l-320 384zM640 256h-256l-64 64h384l-64-64zM83.31 384l266.666 320h324.048l266.666-320h-857.38zM284.964 576h454.072l-53.334 64h-347.406zM178.298 448h667.406l-53.334 64h-560.74z" />
<glyph unicode="&#xe64b;" d="M279.182 182.068l-31.184 1.938-1.938 31.182c-1.070 17.224-8.376 33.422-20.564 45.614-9.256 9.256-20.462 15.386-32.306 18.434-1.884-2.066-3.516-4.672-4.754-7.864l-58.52-188.886c-5.688-14.854 1.708-22.25 16.622-16.564l188.826 58.522c3.194 1.238 5.798 2.87 7.864 4.754-3.042 11.844-9.176 23.050-18.43 32.304-12.192 12.19-28.394 19.494-45.616 20.566zM773.192 824.942c-9.45 9.406-24.878 9.406-34.376 0l-17.142-17.188-65.728-65.73 150.096-150.094 82.872 82.868c9.448 9.5 9.45 24.928 0 34.378l-115.722 115.766zM243.306 329.434c10.794-5.078 20.914-12.060 29.838-20.984 19.042-19.042 29.312-43.52 30.86-68.438 24.92-1.548 49.396-11.818 68.442-30.86 8.92-8.926 15.902-19.042 20.982-29.842l364.964 364.97-150.12 150.118-364.966-364.964z" />
<glyph unicode="&#xe64c;" d="M866.178 75.040c6.368-6.126 6.562-16.256 0.436-22.624-15.448-16.056-49.73-43.144-105.754-44.172-18.354-0.388-41.28 12.412-63.374 24.744-13.066 7.292-27.876 15.558-35.006 16.734-9.954 1.64-25.616-4.28-38.202-9.036-18.754-7.092-38.15-14.424-50.586-0.294-31.926 36.258-74.862 69.166-180.884 0.192-44-28.624-87.39-42.592-132.43-42.592-2.056 0-4.112 0.030-6.174 0.088-42.634 1.2-86.204 14.958-133.198 42.054-7.656 4.414-10.282 14.2-5.868 21.854 2.874 4.984 8.026 7.82 13.382 7.984-0.946 3.124-0.58 7.356 1.394 12.51l58.52 188.884c1.238 3.192 2.87 5.796 4.754 7.864 11.844-3.046 23.050-9.178 32.306-18.434 12.19-12.19 19.494-28.388 20.564-45.614l1.938-31.182 31.184-1.938c17.222-1.070 33.424-8.376 45.616-20.566 9.254-9.254 15.386-20.46 18.43-32.306-2.064-1.884-4.67-3.516-7.864-4.754l-188.826-58.522c-1.384-0.528-2.678-0.906-3.928-1.212 85.178-47.34 157.2-46.45 232.75 2.706 119.586 77.8 180.31 40.498 219.626-2.82 4.4 0.898 12.376 3.914 17.976 6.032 16.168 6.112 36.286 13.71 54.726 10.678 12.64-2.086 27.818-10.556 45.394-20.368 15.662-8.742 37.070-20.692 46.97-20.692 0.074 0 0.146 0 0.218 0.002 42.25 0.774 68.61 19.114 83.282 34.364 6.13 6.366 16.26 6.562 22.628 0.436zM888.914 709.174l-115.722 115.764c-9.45 9.406-24.878 9.406-34.376 0l-17.142-17.188-65.728-65.73 150.096-150.094 82.872 82.868c9.448 9.498 9.45 24.926 0 34.38zM304.004 240.008c24.92-1.548 49.396-11.818 68.442-30.86 8.92-8.924 15.902-19.042 20.982-29.842l364.964 364.97-150.12 150.118-364.966-364.964c10.794-5.078 20.914-12.060 29.838-20.984 19.044-19.042 29.314-43.52 30.86-68.438z" />
<glyph unicode="&#xe64d;" d="M512 944c-273.934 0-496-222.066-496-496s222.066-496 496-496 496 222.066 496 496-222.066 496-496 496zM379.522 205.33l-141.62-43.89c-11.184-4.264-16.73 1.286-12.464 12.424l43.89 141.664c0.928 2.394 2.152 4.352 3.564 5.898 8.884-2.286 17.288-6.882 24.23-13.826 9.142-9.142 14.622-21.292 15.422-34.208l1.454-23.384 23.388-1.456c12.918-0.802 25.068-6.282 34.212-15.426 6.94-6.94 11.54-15.344 13.822-24.226-1.548-1.418-3.502-2.64-5.898-3.57zM423.070 246.482c-3.81 8.1-9.046 15.688-15.736 22.38-14.284 14.282-32.64 21.982-51.332 23.142-1.16 18.69-8.862 37.044-23.144 51.328-6.692 6.694-14.282 11.93-22.378 15.74l273.722 273.722 112.59-112.588-273.722-273.724zM794.686 618.098l-62.154-62.15-112.574 112.574 62.148 62.184c7.124 7.056 18.7 7.056 25.788 0l86.792-86.824c7.088-7.090 7.084-18.66 0-25.784z" />
<glyph unicode="&#xe64e;" d="M512 768c-223.318 0-416.882-130.042-512-320 95.118-189.958 288.682-320 512-320 223.314 0 416.878 130.042 512 320-95.116 189.958-288.686 320-512 320zM764.45 598.296c60.162-38.374 111.142-89.774 149.434-150.296-38.292-60.522-89.274-111.922-149.436-150.298-75.594-48.216-162.89-73.702-252.448-73.702-89.56 0-176.856 25.486-252.45 73.704-60.16 38.372-111.14 89.772-149.434 150.296 38.292 60.524 89.274 111.924 149.434 150.296 3.918 2.5 7.876 4.922 11.858 7.3-9.958-27.328-15.408-56.822-15.408-87.596 0-141.384 114.616-256 256-256s256 114.616 256 256c0 30.774-5.45 60.268-15.408 87.598 3.98-2.378 7.938-4.802 11.858-7.302zM512 550c0-53.020-42.98-96-96-96s-96 42.98-96 96 42.98 96 96 96 96-42.98 96-96z" />
<glyph unicode="&#xe64f;" d="M839.322 663.584c77.644-55.030 141.37-129.092 184.678-215.584-95.122-189.958-288.686-320-512-320-62.566 0-122.792 10.212-179.178 29.084l77.956 77.956c33.058-7.3 66.972-11.040 101.222-11.040 89.558 0 176.854 25.486 252.446 73.704 60.162 38.376 111.144 89.776 149.436 150.298-37.052 58.566-86.014 108.55-143.65 146.494l69.090 69.088zM512 262c-22.724 0-44.752 2.976-65.728 8.534l313.186 313.184c5.562-20.972 8.542-42.994 8.542-65.718 0-141.384-114.616-256-256-256zM960 960h-53.738l-219.612-219.612c-55.076 17.924-113.754 27.612-174.65 27.612-223.318 0-416.882-130.042-512-320 42.658-85.192 105.128-158.308 181.194-213.068l-181.194-181.194v-53.738h53.738l906.262 906.262v53.738zM416 646c48.044 0 87.846-35.294 94.892-81.37l-109.524-109.524c-46.074 7.048-81.368 46.85-81.368 94.894 0 53.020 42.98 96 96 96zM110.116 448c38.292 60.524 89.274 111.924 149.434 150.296 3.918 2.5 7.876 4.922 11.858 7.3-9.958-27.328-15.408-56.822-15.408-87.596 0-58.524 19.65-112.448 52.698-155.562l-58.55-58.55c-56.072 37.642-103.754 86.772-140.032 144.112z" />
<glyph unicode="&#xe650;" d="M383.972 576h96.028v122.128h-64v39.392h32v94.508h-224v-94.508h44.766c5.774 8.012-147.612-313.74-161.504-577.52h-43.262v-96.028h320v224.028h96v128h-96.028v160zM914.772 160c-13.862 263.706-167.338 585.606-161.47 577.52h46.698v94.508h-224v-94.508h42.35v-39.39h-74.35v-122.13h96v-160h-96v-128h96.074l-0.074-224.028h320v96.028h-45.228zM415.73 542.538h189.042v-94.538h-189.042z" />
<glyph unicode="&#xe651;" d="M416 832c77 0 149.2-30 203.6-84.4s84.4-126.6 84.4-203.6-30-149.2-84.4-203.6-126.6-84.4-203.6-84.4-149.2 30-203.6 84.4-84.4 126.6-84.4 203.6 30 149.2 84.4 203.6 126.6 84.4 203.6 84.4zM416 896c-194.4 0-352-157.6-352-352s157.6-352 352-352 352 157.6 352 352-157.6 352-352 352v0zM682.2 368.2l309.8-309.8-90.6-90.4-309.8 309.6 90.6 90.6z" />
<glyph unicode="&#xe652;" d="M960 44.8l-275.2 275.2c51.2 64 83.2 140.8 83.2 224 0 192-160 352-352 352s-352-160-352-352c0-192 160-352 352-352 83.2 0 166.4 32 224 83.2l275.2-275.2 44.8 44.8zM128 544c0 160 128 288 288 288s288-128 288-288-128-288-288-288-288 128-288 288zM576 576h-128v128h-64v-128h-128v-64h128v-128h64v128h128z" />
<glyph unicode="&#xe653;" d="M960 44.8l-275.2 275.2c51.2 64 83.2 140.8 83.2 224 0 192-160 352-352 352s-352-160-352-352c0-192 160-352 352-352 83.2 0 166.4 32 224 83.2l275.2-275.2 44.8 44.8zM128 544c0 160 128 288 288 288s288-128 288-288-128-288-288-288-288 128-288 288zM256 576h320v-64h-320v64z" />
<glyph unicode="&#xe654;" d="M576 640c35.29 0 64-28.71 64-64v-512h-512v576h448zM576 704h-512v-704h640v576c0 70.693-57.307 128-128 128v0zM768 896h-512v-128h64v64h448c35.289 0 64-28.711 64-64v-512h-64v-64h128v576c0 70.695-57.309 128-128 128z" />
<glyph unicode="&#xe655;" d="M926.199 311.406l0.426 0.781-248.988 135.812 248.988 135.812-0.426 0.781c19.836 10.871 33.801 31.195 33.801 55.406 0 35.348-28.652 64-64 64-11.133 0-21.078-3.598-30.199-8.594l-0.426 0.781-321.375-175.297-171.195 93.379c6.996 17.961 11.195 37.324 11.195 57.73 0 88.227-71.777 160-160 160s-160-71.773-160-160c0-88.223 71.777-160 160-160 18.246 0 35.504 3.715 51.852 9.367l134.512-73.367-134.512-73.371c-16.352 5.652-33.605 9.371-51.852 9.371-88.223 0-160-71.773-160-160 0-88.223 71.777-160 160-160s160 71.777 160 160c0 20.406-4.199 39.766-11.195 57.727l171.195 93.379 321.375-175.293 0.426 0.781c9.117-5 19.066-8.594 30.199-8.594 35.348 0 64 28.656 64 64 0 24.215-13.969 44.535-33.801 55.406zM224 576c-53.020 0-96 42.98-96 96s42.98 96 96 96 96-42.98 96-96-42.98-96-96-96zM224 128c-53.020 0-96 42.98-96 96 0 31.766 15.605 59.699 39.379 77.176 7.492 5.508 15.895 9.781 24.777 12.996 1.242 0.437 2.523 0.789 3.789 1.176 8.891 2.797 18.219 4.652 28.055 4.652 9.961 0 19.387-1.926 28.387-4.754 1.496-0.465 3.023-0.859 4.484-1.395 8.762-3.25 16.98-7.598 24.309-13.137 0.586-0.434 1.109-0.941 1.684-1.391 15.5-12.289 27.254-29.152 32.926-48.695 2.469-8.508 4.211-17.324 4.211-26.629 0-53.020-42.98-96-96-96z" />
<glyph unicode="&#xe656;" d="M576 192h64l-256 576h-64l-256-576h64l85.332 192h277.336l85.332-192zM241.777 448l110.223 248 110.223-248h-220.445zM928 832h32v64h-32c-52.535 0-98.816-25.773-128-64.977-29.184 39.203-75.465 64.977-128 64.977h-32v-64h32c52.937 0 96-43.063 96-96v-224h-64v-64h64v-192c0-55.875-46.563-128-96-128h-32v-64h32c53.336 0 99.133 36.477 128 84.391 28.867-47.914 74.664-84.391 128-84.391h32v64h-32c-49.437 0-96 72.125-96 128v192h64v64h-64v224c0 52.937 43.063 96 96 96z" />
<glyph unicode="&#xe657;" d="M927.812 960h-288.562c-52.906 0-126.796-30.606-164.204-68.014l-446.99-446.99c-37.408-37.408-37.408-98.624 0-136.032l344.91-344.906c37.408-37.41 98.622-37.41 136.030 0l446.99 446.988c37.408 37.41 68.014 111.302 68.014 164.204v288.562c0 52.904-43.286 96.188-96.188 96.188zM800 640c-53.020 0-96 42.98-96 96s42.98 96 96 96 96-42.98 96-96-42.98-96-96-96z" />
<glyph unicode="&#xe658;" d="M992 896h-224c-52.8 0-126.546-30.546-163.882-67.882l-376.236-376.236c-37.334-37.334-37.334-98.428 0-135.764l280.236-280.234c37.334-37.336 98.428-37.336 135.764 0l376.234 376.234c37.338 37.336 67.884 111.082 67.884 163.882v224c0 52.8-43.2 96-96 96zM864 576c-53.020 0-96 42.98-96 96s42.98 96 96 96 96-42.98 96-96-42.98-96-96-96zM86.626 361.374l342.378-342.378c-36.264-19.16-82.462-13.538-112.886 16.888l-280.236 280.234c-37.334 37.336-37.334 98.43 0 135.764l376.236 376.236c37.336 37.336 111.082 67.882 163.882 67.882l-489.374-489.372c-12.444-12.446-12.444-32.808 0-45.254z" horiz-adv-x="1088" />
<glyph unicode="&#xe659;" d="M514.25 0c-144.44 0-258.25 114.014-258.25 254.2v451.056c0 105.184 85.376 190.744 190.376 190.744 108.25 0 193.624-85.56 193.624-190.746v-385.934c0-70-56.874-126.98-126.748-126.98-72.376 0-129.25 56.98-129.25 126.98v353.88c0 17.716 14.314 32.056 32 32.056s32-14.34 32-32.060v-353.88c0-34.686 28.128-62.86 62.752-62.86 37.126 0 65.25 28.174 65.25 62.86v385.944c0 69.81-56.686 126.63-126.374 126.63-72.94 0-129.626-56.82-129.626-126.632v-451.058c0-104.81 85.126-190.086 189.75-190.086 109.126 0 194.25 85.28 194.25 190.088v417.798c0 17.72 14.312 32.060 32 32.060s32-14.34 32-32.060v-417.8c0-140.186-113.812-254.2-253.75-254.2z" />
<glyph unicode="&#xe65a;" d="M832 787.694c76.466 0 145.092 41.622 192 73.106v-595.69c-46.908-31.486-115.534-73.11-192-73.11s-145.092 22.67-192 54.156c-46.908 31.48-115.534 54.15-192 54.15s-145.090-38.916-192-70.396v595.69c46.91 31.484 115.534 70.4 192 70.4s145.092-22.668 192-54.152c46.908-31.484 115.534-54.154 192-54.154zM128 960c35.346 0 64-28.654 64-64v-960h-128v960c0 35.346 28.654 64 64 64z" />
<glyph unicode="&#xe65b;" d="M640 128c0-70.8-57.2-128-128-128s-128 57.2-128 128c0 70.8 57.2 128 128 128s128-57.2 128-128zM384 896h256v-512h-256v512z" />
<glyph unicode="&#xe65c;" d="M554.667 640h-298.667v-298.667l256 256h426.667v-469.333h-351.005l31.005-21.333-31.005-21.333h393.672v554.667zM341.333 853.334h-298.667v-512h170.667l-42.667 42.667h-85.333v213.333l213.333 213.333h426.667v-85.333h42.667v128zM469.333 106.667l-213.333 149.333v-128h-170.667v170.667h-42.667v-213.333h213.333v-128z" />
<glyph unicode="&#xe65d;" d="M377.453 788.589c-35.164 39.43-85.797 64.745-142.786 64.745-106.039 0-192-85.961-192-192 0-56.99 25.315-107.622 64.745-142.786 42.396 127.112 142.93 227.646 270.042 270.042zM916.589 518.547c39.43 35.164 64.745 85.797 64.745 142.786 0 106.039-85.961 192-192 192-56.99 0-107.622-25.315-142.786-64.745 127.112-42.396 227.646-142.93 270.042-270.042zM500.323 298.667l-172 132.458c-9.333 7.208-11.083 20.583-3.917 29.917 7.25 9.375 20.583 11.042 29.917 3.917l143.417-110.458 170.375 158.375c8.625 8.042 22.125 7.542 30.167-1.083 8.042-8.667 7.542-22.167-1.083-30.167l-196.875-182.958zM512 768c-212.078 0-384-171.922-384-384 0-212.076 171.922-384 384-384s384 171.924 384 384c0 212.078-171.922 384-384 384zM512 42.667c-188.211 0-341.333 153.122-341.333 341.333 0 188.214 153.122 341.333 341.333 341.333s341.333-153.12 341.333-341.333c0-188.211-153.122-341.333-341.333-341.333z" />
<glyph unicode="&#xe65e;" d="M704 896h256v-896h-256zM384 608h256v-608h-256zM64 320h256v-320h-256z" />
<glyph unicode="&#xe65f;" d="M384 640l320-192-320-192zM512 832c211.738 0 384-172.262 384-384s-172.262-384-384-384-384 172.262-384 384 172.262 384 384 384zM512 896c-247.424 0-448-200.576-448-448s200.576-448 448-448 448 200.576 448 448-200.576 448-448 448v0z" />
<glyph unicode="&#xe660;" d="M192 832l640-384-640-384z" />
<glyph unicode="&#xe661;" d="M128 832h320v-768h-320zM576 832h320v-768h-320z" />
<glyph unicode="&#xe662;" d="M128 832h768v-768h-768z" />
<glyph unicode="&#xe663;" d="M576 800v-320l320 320v-704l-320 320v-320l-352 352z" />
<glyph unicode="&#xe664;" d="M512 96v320l-320-320v704l320-320v320l352-352z" />
<glyph unicode="&#xe665;" d="M128 64v768h128v-352l320 320v-320l320 320v-704l-320 320v-320l-320 320v-352z" />
<glyph unicode="&#xe666;" d="M896 832v-768h-128v352l-320-320v320l-320-320v704l320-320v320l320-320v352z" />
<glyph unicode="&#xe667;" d="M256 64v768h128v-352l320 320v-704l-320 320v-352z" />
<glyph unicode="&#xe668;" d="M768 832v-768h-128v352l-320-320v704l320-320v352z" />
<glyph unicode="&#xe669;" d="M0 192h1024v-128h-1024zM512 832l512-512h-1024z" />
<glyph unicode="&#xe66a;" d="M832 320l-64-64-128 320-128-384-192 704-128-640h-192v-64h244.47l85.118 425.606 176.286-646.376 139.594 418.78 99.158-247.896 113.886 113.886h165.488v64z" />
<glyph unicode="&#xe66b;" d="M640 384c105.87 0 201.87-43.066 271.402-112.598l-90.468-90.468c-46.354 46.356-110.356 75.066-180.934 75.066s-134.578-28.71-180.934-75.066l-90.468 90.468c69.532 69.532 165.532 112.598 271.402 112.598zM187.452 452.548c120.88 120.88 281.598 187.452 452.548 187.452s331.668-66.572 452.55-187.452l-90.51-90.508c-96.706 96.704-225.28 149.96-362.040 149.96-136.762 0-265.334-53.256-362.038-149.962l-90.51 90.51zM988.784 825.562c106.702-45.132 202.516-109.728 284.782-191.996v0l-90.508-90.508c-145.056 145.056-337.92 224.942-543.058 224.942-205.14 0-398-79.886-543.058-224.942l-90.51 90.51c82.268 82.266 178.082 146.862 284.784 191.994 110.504 46.738 227.852 70.438 348.784 70.438s238.278-23.7 348.784-70.438zM576 64c0 35.346 28.654 64 64 64s64-28.654 64-64c0-35.346-28.654-64-64-64s-64 28.654-64 64z" horiz-adv-x="1280" />
<glyph unicode="&#xe66c;" d="M810.667 426.667h-85.333v213.333c0 119.467-93.867 213.333-213.333 213.333h-42.667c-119.467 0-213.333-93.867-213.333-213.333v-128h42.667v128c0 93.867 76.8 170.667 170.667 170.667h42.667c93.867 0 170.667-76.8 170.667-170.667v-213.333h-512c-25.6 0-42.667-17.067-42.667-42.667v-426.667c0-25.6 17.067-42.667 42.667-42.667h640c25.6 0 42.667 17.067 42.667 42.667v426.667c0 25.6-17.067 42.667-42.667 42.667zM512 174.934v-89.6c0-12.8-8.533-21.333-21.333-21.333s-21.333 8.533-21.333 21.333v89.6c-25.6 8.533-42.667 34.133-42.667 59.733 0 34.133 29.867 64 64 64s64-29.867 64-64c0-29.867-17.067-51.2-42.667-59.733z" />
<glyph unicode="&#xe66d;" d="M810.667 512h-85.333v128c0 117.82-95.513 213.333-213.333 213.333h-42.667c-117.82 0-213.333-95.513-213.333-213.333v-128h-85.333c-23.563 0-42.667-19.102-42.667-42.667v-426.667c0-23.563 19.104-42.667 42.667-42.667h640c23.565 0 42.667 19.104 42.667 42.667v426.667c0 23.565-19.102 42.667-42.667 42.667zM512 259.917v-89.25c0-11.781-9.549-21.333-21.333-21.333-11.781 0-21.333 9.552-21.333 21.333v89.25c-24.799 8.815-42.667 32.258-42.667 60.083 0 35.346 28.654 64 64 64s64-28.654 64-64c0-27.826-17.867-51.268-42.667-60.083zM682.667 512h-384v128c0 94.107 76.563 170.667 170.667 170.667h42.667c94.107 0 170.667-76.56 170.667-170.667v-128z" />
<glyph unicode="&#xe66e;" d="M853.333 355.347l-30.169 30.169-120.68-120.68-120.68 120.68-30.169-30.169 120.68-120.68-120.68-120.68 30.169-30.169 120.68 120.68 120.68-120.68 30.169 30.169-120.68 120.68zM612.697 782.573c-16.334 10.889-38.113 18.504-65.316 18.504-65.337 0-76.205-62.062-87.095-119.742l-30.499-169.335h127.059l-7.614-42.667h-128.144l-67.506-350.87c-13.059-74.057-40.283-161.13-143.711-161.13-48.981 0-84.904 25.054-84.904 25.054l21.779 45.727c14.144-7.657 35.923-16.334 63.125-16.334 27.224 0 43.558 8.677 59.892 27.181 16.334 19.61 25.033 57.723 32.647 101.281l60.977 329.091h-105.207l7.614 42.667h107.398l38.092 205.257c6.529 32.647 21.779 70.76 43.558 94.709 21.758 25.033 54.426 41.367 92.539 41.367 38.092 0 76.205-16.334 87.095-25.033l-21.779-45.727z" />
<glyph unicode="&#xe66f;" d="M524.034 313.361c-38.136 0-76.252 14.581-105.29 43.786l-88.569 89.075c-8.309 8.356-8.309 21.893 0 30.249s21.768 8.356 30.077 0l88.569-89.075c41.397-41.655 108.904-41.738 150.406 0l180.504 181.493c41.418 41.718 41.418 109.569 0 151.265l-60.196 60.519c-40.089 40.36-110.13 40.443-150.385 0l-130.341-131.085c-8.309-8.356-21.768-8.356-30.077 0s-8.309 21.893 0 30.249l130.341 131.085c56.291 56.591 154.415 56.508 210.539 0l60.195-60.519c58.035-58.367 58.035-153.375 0-211.763l-180.504-181.493c-29.038-29.204-67.175-43.786-105.269-43.786zM251.637 42.667c-39.777 0-77.166 15.584-105.27 43.869l-60.175 60.498c-58.035 58.409-58.035 153.375 0 211.784l180.483 181.493c56.249 56.57 154.352 56.57 210.56 0l91.913-92.418c8.309-8.356 8.309-21.893 0-30.249s-21.768-8.356-30.077 0l-91.913 92.418c-40.172 40.422-110.234 40.381-150.406 0l-180.483-181.493c-41.46-41.697-41.46-109.589 0-151.286l60.175-60.498c40.193-40.443 110.255-40.443 150.406 0l130.32 131.106c8.309 8.356 21.768 8.356 30.077 0 8.288-8.356 8.329-21.893 0-30.249l-130.32-131.106c-28.124-28.285-65.513-43.869-105.29-43.869zM871.599 174.678l-89.906 30.773-30.773 89.906 103.94 103.943c-56.823 15.016-119.727 0.953-164.281-43.602-50.617-50.62-62.573-125.049-36.305-187.156l-129.026-129.026 90.51-90.508 129.023 129.023c62.109-26.271 136.536-14.312 187.156 36.307 44.557 44.555 58.62 107.456 43.604 164.281l-103.943-103.943z" />
<glyph unicode="&#xe670;" d="M524.034 313.361c-38.136 0-76.252 14.581-105.29 43.786l-88.569 89.075c-8.309 8.356-8.309 21.893 0 30.249s21.768 8.356 30.077 0l88.569-89.075c41.397-41.655 108.904-41.738 150.406 0l180.504 181.493c41.418 41.718 41.418 109.569 0 151.265l-60.196 60.519c-40.089 40.36-110.13 40.443-150.385 0l-130.341-131.085c-8.309-8.356-21.768-8.356-30.077 0s-8.309 21.893 0 30.249l130.341 131.085c56.291 56.591 154.415 56.508 210.539 0l60.195-60.519c58.035-58.367 58.035-153.375 0-211.763l-180.504-181.493c-29.038-29.204-67.175-43.786-105.269-43.786zM251.637 42.667c-39.777 0-77.166 15.584-105.27 43.869l-60.175 60.498c-58.035 58.409-58.035 153.375 0 211.784l180.483 181.493c56.249 56.57 154.352 56.57 210.56 0l91.913-92.418c8.309-8.356 8.309-21.893 0-30.249s-21.768-8.356-30.077 0l-91.913 92.418c-40.172 40.422-110.234 40.381-150.406 0l-180.483-181.493c-41.46-41.697-41.46-109.589 0-151.286l60.175-60.498c40.193-40.443 110.255-40.443 150.406 0l130.32 131.106c8.309 8.356 21.768 8.356 30.077 0 8.288-8.356 8.329-21.893 0-30.249l-130.32-131.106c-28.124-28.285-65.513-43.869-105.29-43.869zM640 213.334h341.333v-85.333h-341.333v85.333z" />
<glyph unicode="&#xe671;" d="M576.64 128h-1.28c-34.994 0-63.36 28.366-63.36 63.36v1.28c0 34.994 28.366 63.36 63.36 63.36h1.28c34.994 0 63.36-28.366 63.36-63.36v-1.28c0-34.994-28.366-63.36-63.36-63.36zM768.64 128h-1.28c-34.994 0-63.36 28.366-63.36 63.36v1.28c0 34.994 28.366 63.36 63.36 63.36h1.28c34.994 0 63.36-28.366 63.36-63.36v-1.28c0-34.994-28.366-63.36-63.36-63.36zM192.64 128h-1.28c-34.992 0-63.36 28.366-63.36 63.36v1.28c0 34.994 28.368 63.36 63.36 63.36h1.28c34.992 0 63.36-28.366 63.36-63.36v-1.28c0-34.994-28.366-63.36-63.36-63.36zM384.64 128h-1.28c-34.992 0-63.36 28.366-63.36 63.36v1.28c0 34.994 28.368 63.36 63.36 63.36h1.28c34.992 0 63.36-28.366 63.36-63.36v-1.28c0-34.994-28.368-63.36-63.36-63.36zM576.64 320h-1.28c-34.994 0-63.36 28.366-63.36 63.36v1.28c0 34.994 28.366 63.36 63.36 63.36h1.28c34.994 0 63.36-28.366 63.36-63.36v-1.28c0-34.994-28.366-63.36-63.36-63.36zM192.64 320h-1.28c-34.992 0-63.36 28.366-63.36 63.36v1.28c0 34.994 28.368 63.36 63.36 63.36h1.28c34.992 0 63.36-28.366 63.36-63.36v-1.28c0-34.994-28.366-63.36-63.36-63.36zM384.64 320h-1.28c-34.992 0-63.36 28.366-63.36 63.36v1.28c0 34.994 28.368 63.36 63.36 63.36h1.28c34.992 0 63.36-28.366 63.36-63.36v-1.28c0-34.994-28.368-63.36-63.36-63.36zM576.64 512h-1.28c-34.994 0-63.36 28.368-63.36 63.36v1.28c0 34.992 28.366 63.36 63.36 63.36h1.28c34.994 0 63.36-28.368 63.36-63.36v-1.28c0-34.992-28.366-63.36-63.36-63.36zM768.64 320h-1.28c-34.994 0-63.36 28.366-63.36 63.36v1.28c0 34.994 28.366 63.36 63.36 63.36h1.28c34.994 0 63.36-28.366 63.36-63.36v-1.28c0-34.994-28.366-63.36-63.36-63.36zM768.64 512h-1.28c-34.994 0-63.36 28.368-63.36 63.36v1.28c0 34.992 28.366 63.36 63.36 63.36h1.28c34.994 0 63.36-28.368 63.36-63.36v-1.28c0-34.992-28.366-63.36-63.36-63.36zM384.64 512h-1.28c-34.992 0-63.36 28.368-63.36 63.36v1.28c0 34.992 28.368 63.36 63.36 63.36h1.28c34.992 0 63.36-28.368 63.36-63.36v-1.28c0-34.992-28.368-63.36-63.36-63.36zM0 896v-768c0-70.692 57.308-128 128-128h704c70.692 0 128 57.308 128 128v768h-960zM896 128c0-35.288-28.712-64-64-64h-704c-35.29 0-64 28.712-64 64v576h832v-576zM64 768v64h832v-64h-832z" />
<glyph unicode="&#xe672;" d="M981.333 213.334h-128v128h-85.333v-128h-128v-85.333h128v-128h85.333v128h128zM524.034 313.361c-38.136 0-76.252 14.581-105.29 43.786l-88.569 89.075c-8.309 8.356-8.309 21.893 0 30.249s21.768 8.356 30.077 0l88.569-89.075c41.397-41.655 108.904-41.738 150.406 0l180.504 181.493c41.418 41.718 41.418 109.569 0 151.265l-60.196 60.519c-40.089 40.36-110.13 40.443-150.385 0l-130.341-131.085c-8.309-8.356-21.768-8.356-30.077 0s-8.309 21.893 0 30.249l130.341 131.085c56.291 56.591 154.415 56.508 210.539 0l60.195-60.519c58.035-58.367 58.035-153.375 0-211.763l-180.504-181.493c-29.038-29.204-67.175-43.786-105.269-43.786zM251.637 42.667c-39.777 0-77.166 15.584-105.27 43.869l-60.175 60.498c-58.035 58.409-58.035 153.375 0 211.784l180.483 181.493c56.249 56.57 154.352 56.57 210.56 0l91.913-92.418c8.309-8.356 8.309-21.893 0-30.249s-21.768-8.356-30.077 0l-91.913 92.418c-40.172 40.422-110.234 40.381-150.406 0l-180.483-181.493c-41.46-41.697-41.46-109.589 0-151.286l60.175-60.498c40.193-40.443 110.255-40.443 150.406 0l130.32 131.106c8.309 8.356 21.768 8.356 30.077 0 8.288-8.356 8.329-21.893 0-30.249l-130.32-131.106c-28.124-28.285-65.513-43.869-105.29-43.869z" />
<glyph unicode="&#xe673;" d="M609.367 270.694c-38.136 0-76.252 14.581-105.29 43.786l-88.569 89.075c-8.309 8.356-8.309 21.893 0 30.249s21.768 8.356 30.077 0l88.569-89.075c41.397-41.655 108.904-41.738 150.406 0l180.504 181.493c41.418 41.718 41.418 109.569 0 151.265l-60.196 60.519c-40.089 40.36-110.13 40.443-150.385 0l-130.341-131.085c-8.309-8.356-21.768-8.356-30.077 0s-8.309 21.893 0 30.249l130.341 131.085c56.291 56.591 154.415 56.508 210.539 0l60.195-60.519c58.035-58.367 58.035-153.375 0-211.763l-180.504-181.493c-29.038-29.204-67.175-43.786-105.27-43.786zM336.971-0c-39.777 0-77.166 15.584-105.27 43.869l-60.175 60.498c-58.035 58.409-58.035 153.375 0 211.784l180.483 181.493c56.249 56.57 154.352 56.57 210.56 0l91.913-92.418c8.309-8.356 8.309-21.893 0-30.249s-21.768-8.356-30.077 0l-91.913 92.418c-40.172 40.422-110.234 40.381-150.406 0l-180.483-181.493c-41.46-41.697-41.46-109.589 0-151.286l60.175-60.498c40.193-40.443 110.255-40.443 150.406 0l130.32 131.106c8.309 8.356 21.768 8.356 30.077 0 8.288-8.356 8.329-21.893 0-30.249l-130.32-131.106c-28.124-28.285-65.513-43.869-105.29-43.869z" />
<glyph unicode="&#xe674;" d="M490.667 106.667c-11.792 0-21.333 9.542-21.333 21.333v214.521c0 56.938-31.625 108.125-82.542 133.563l-161.667 80.833c-10.542 5.271-14.813 18.083-9.542 28.625 5.292 10.563 18.062 14.792 28.625 9.542l161.667-80.833c65.458-32.729 106.125-98.521 106.125-171.729v-214.521c0-11.792-9.542-21.333-21.333-21.333zM583.896 829.615c-56.875 31.625-129.583 31.625-186.458 0l-312.104-155.719v-495.396l406.938-199.833 316.021 187.646c54.917 35.542 87.708 95.813 87.708 161.208v346.375l-312.104 155.719zM785.125 202.146l-296.062-174.729-361.063 178.083v443.271l290.146 143.552c44.25 24.583 100.792 24.583 145.042 0l287.078-141.849-242.349-141.37c-10.167-5.938-13.604-19-7.688-29.187 3.979-6.792 11.125-10.583 18.458-10.583 3.646 0 7.354 0.938 10.729 2.896l223.917 130.617v-275.326c0-50.854-25.5-97.729-68.208-125.375z" />
<glyph unicode="&#xe675;" d="M682.667 469.334h-128v128h-85.333v-128h-128v-85.333h128v-128h85.333v128h128zM64 810.667c-12.8 0-21.333-8.533-21.333-21.333s8.533-21.333 21.333-21.333h106.667v-682.667h-106.667c-12.8 0-21.333-8.533-21.333-21.333s8.533-21.333 21.333-21.333h149.333v768h-149.333zM960 85.334h-106.667v682.667h106.667c12.8 0 21.333 8.533 21.333 21.333s-8.533 21.333-21.333 21.333h-149.333v-768h149.333c12.8 0 21.333 8.533 21.333 21.333s-8.533 21.333-21.333 21.333z" />
<glyph unicode="&#xe676;" d="M960 576v128h-512v32c0 53-43 96-96 96h-222.6c-50 0-65.4-14.4-65.4-64v-640h848l96 448h-48zM860.2 192h-732.2v576h224c17.6 0 32-14.4 32-32v-96h512v-64h-644l-64-256h66l48 192h626.8l-68.6-320z" />
<glyph unicode="&#xe677;" d="M722.090 516.086v-48.26c-5.524-2.374-11.812-5.284-18.618-8.576v-15.424c0-20.25-6.414-49.928-17.156-79.384-8.18-22.426-17.070-40.192-26.564-53.124v-23.318h300.248v138.82c-28.946 15.88-60.222 32.16-82.082 41.006v48.5c13.89 10.152 31.796 61.37 31.796 85.068v66.432c0 55.086-42.922 100.174-109.708 100.174-66.78 0-109.722-45.088-109.722-100.174 0 0 0-10.638 0-65.16 7.020-17.024 11.3-35.292 12.662-54.294 5.872-14.92 12.912-27.748 19.144-32.286zM337.68 364.156c-10.742 29.502-17.154 59.286-17.154 79.67v15.796c-6.694 3.138-12.968 5.92-18.61 8.204v48.5c6.238 4.56 13.284 17.41 19.156 32.324 1.384 18.9 5.656 37.070 12.642 54.008v65.168c0 55.086-42.92 100.174-109.708 100.174-66.778 0-109.722-45.088-109.722-100.174 0 0 0-10.782 0-66.432 0-23.936 17.916-75.196 31.804-85.306v-48.26c-20.858-8.96-52.566-25.548-82.090-41.624v-138.204h300.258v22.976c-9.506 12.94-18.4 30.724-26.576 53.18zM619.136 326.856c19.098 13.962 43.72 84.386 43.72 116.97v91.344c0 75.744-59.018 136.83-150.85 136.83-91.82 0-150.866-61.086-150.866-136.83 0 0 0-14.826 0-91.344 0-32.912 24.63-103.392 43.73-117.294v-66.36c-62.192-26.72-194.568-102.762-214.252-113.972-24.512-13.926-30.618-27.172-30.618-59.396 0-32.254 0-76.52 0-76.52 0-4.458 3.712-10.286 8.202-10.286h687.608c4.488 0 8.192 5.828 8.192 10.286 0 0 0 44.266 0 76.52 0 32.222-6.098 45.468-30.6 59.394-19.706 11.21-148.234 87.252-214.264 113.972v66.686z" />
<glyph unicode="&#xe678;" d="M960 13.090c0-5.672-4.712-13.090-10.424-13.090h-875.138c-5.71 0-10.438 7.418-10.438 13.090 0 0 0 56.338 0 97.388 0 41.014 7.77 57.87 38.97 75.596 25.054 14.266 193.534 111.044 272.688 145.054v84.456c-24.308 17.694-55.658 107.398-55.658 149.286 0 97.39 0 116.258 0 116.258 0 96.4 75.148 182.872 192.012 182.872 116.876 0 191.988-86.472 191.988-182.874v-116.258c0-41.468-31.338-131.1-55.644-148.87v-84.872c84.038-34.010 247.62-130.79 272.7-145.054 31.182-17.724 38.944-34.58 38.944-75.594 0-41.050 0-97.388 0-97.388z" />
<glyph unicode="&#xe679;" d="M448 704v32c0 53-43 96-96 96h-222.6c-50 0-65.4-14.4-65.4-64v-640h896v576h-512zM352 768c17.6 0 32-14.4 32-32v-96h512v-448h-768v576c0 0 224 0 224 0z" />
<glyph unicode="&#xe67a;" d="M704 960c-176.73 0-320-143.268-320-320 0-20.026 1.858-39.616 5.376-58.624l-389.376-389.376v-192c0-35.346 28.654-64 64-64h64v64h128v128h128v128h128l83.042 83.042c34.010-12.316 70.696-19.042 108.958-19.042 176.73 0 320 143.268 320 320s-143.27 320-320 320zM799.874 639.874c-53.020 0-96 42.98-96 96s42.98 96 96 96 96-42.98 96-96-42.98-96-96-96z" />
<glyph unicode="&#xe67b;" d="M847.102 526.586c-11.258 11.61-24.742 17.414-40.446 17.414h-6.474l-0.45 59.22c-0.004 38.822-7.628 76.534-22.666 112.080-14.508 34.304-35.26 65.090-61.678 91.508s-57.204 47.168-91.508 61.678c-35.558 15.042-73.282 22.666-112.118 22.666s-76.558-7.624-112.118-22.666c-34.302-14.51-65.090-35.26-91.508-61.678s-47.168-57.206-61.678-91.508c-15.042-35.558-22.666-73.282-22.666-112.118v-59.182h-6.452c-15.704 0-29.188-5.804-40.446-17.414-11.262-11.602-16.894-25.258-16.894-40.954v-428.29c0-15.704 5.632-29.188 16.898-40.446 11.258-11.266 24.742-16.898 40.446-16.898h589.312c15.704 0 29.188 5.632 40.446 16.898 11.266 11.258 16.898 24.742 16.898 40.446v428.29c0 15.696-5.632 29.352-16.898 40.954zM539.388 260.002l14.426-134.988h-85.654l15.916 135.232c-21.802 10.43-36.862 32.688-36.862 58.468 0 35.78 29.004 64.786 64.786 64.786 35.78 0 64.786-29.006 64.786-64.786 0-25.988-15.312-48.392-37.398-58.712zM314.144 544h-0.348v59.184c0 109.336 88.632 197.968 197.968 197.968s197.968-88.632 197.968-197.968l-0.178-59.184h-395.41z" />
<glyph unicode="&#xe67c;" d="M847.102 494.586c-11.258 11.61-24.742 17.414-40.446 17.414h-6.452v78.516h-0.096l-0.376 49.552c-0.004 38.822-7.628 76.534-22.666 112.080-14.508 34.304-35.26 65.090-61.678 91.508s-57.204 47.168-91.508 61.678c-35.558 15.042-73.28 22.666-112.116 22.666s-76.558-7.624-112.118-22.666c-34.302-14.51-65.090-35.26-91.508-61.678s-47.168-57.206-61.678-91.508c-15.042-35.558-22.666-73.282-22.666-112.118v-62.184h90v62.184c0 109.336 88.632 197.968 197.968 197.968s197.968-88.632 197.968-197.968l0.358-49.516v-78.514h-492.744c-15.704 0-29.188-5.804-40.446-17.414-11.266-11.602-16.898-25.258-16.898-40.954v-428.29c0-15.704 5.632-29.188 16.898-40.446 11.258-11.266 24.742-16.898 40.446-16.898h589.312c15.704 0 29.188 5.632 40.446 16.898 11.266 11.258 16.898 24.742 16.898 40.446v428.29c0 15.696-5.632 29.352-16.898 40.954zM539.388 228.002l14.426-134.988h-85.654l15.916 135.232c-21.802 10.43-36.862 32.688-36.862 58.468 0 35.78 29.004 64.786 64.786 64.786 35.78 0 64.786-29.006 64.786-64.786 0-25.988-15.312-48.392-37.398-58.712z" />
<glyph unicode="&#xe67d;" d="M384 448h-320v128h320v128l192-192-192-192zM1024 960v-832l-384-192v192h-384v256h64v-192h320v576l256 128h-576v-256h-64v320z" />
<glyph unicode="&#xe67e;" d="M768 320v128h-320v128h320v128l192-192zM704 384v-256h-320v-192l-384 192v832h704v-320h-64v256h-512l256-128v-576h256v192z" />
<glyph unicode="&#xe67f;" d="M341.333 768c25.6 0 42.667-17.067 42.667-42.667v-85.333h554.667v-512h-853.333v640h256zM341.333 810.667h-256c-25.6 0-42.667-21.333-42.667-42.667v-682.667h938.667v597.333h-554.667v42.667c0 46.933-38.4 85.333-85.333 85.333v0z" />
<glyph unicode="&#xe680;" d="M127.809 832h384c35.262 0 64-28.734 64-64v-64h64v64c0 70.723-57.281 128-128 128h-447.426v-640h255.426v64h-192v512zM192 768h320v-64h-320v64zM191.998 640h63.809v-64h-63.809v64zM575.809 64h-128v256h-63.426v-320h276.965l-52 64zM959.809 512c0 70.723-57.281 128-128 128h-511.809v-64h511.809c35.262 0 64-28.734 64-64 23.418 0 45.098-6.777 64-17.805v17.805zM576 512h-384v-64h273.613c22.207 38.074 63.227 64 110.387 64zM896 448h-320c-35.348 0-64-28.652-64-64v-192c0-35.344 28.652-64 64-64h64l104-128 88 128h64c35.348 0 64 28.656 64 64v192c0 35.348-28.652 64-64 64z" />
<glyph unicode="&#xe681;" d="M219.704 832h-128.228c-8.774 0-15.886-7.202-15.886-16.082v-735.834c0-8.882 7.114-16.084 15.886-16.084h128.226c8.776 0 15.886 7.202 15.886 16.084v735.834c0.002 8.88-7.11 16.082-15.884 16.082zM217.654 598.724h-124.128v146.146h124.128v-146.146zM411.704 832h-128.226c-8.774 0-15.886-7.202-15.886-16.082v-735.834c0-8.882 7.114-16.084 15.886-16.084h128.226c8.776 0 15.886 7.202 15.886 16.084v735.834c0 8.88-7.112 16.082-15.886 16.082zM409.654 598.724h-124.128v146.146h124.128v-146.146zM603.704 832h-128.226c-8.774 0-15.886-7.202-15.886-16.082v-735.834c0-8.882 7.114-16.084 15.886-16.084h128.226c8.776 0 15.886 7.202 15.886 16.084v735.834c0 8.88-7.112 16.082-15.886 16.082zM601.654 598.724h-124.128v146.146h124.128v-146.146zM772.538 836.85l-125.292-27.282c-8.572-1.868-13.99-10.416-12.102-19.094l156.552-718.988c1.888-8.68 10.372-14.202 18.944-12.336l125.292 27.282c8.576 1.868 13.992 10.416 12.102 19.094l-156.552 718.99c-1.888 8.678-10.368 14.2-18.944 12.334zM820.166 608.478l-121.288-26.408-31.094 142.798 121.288 26.41 31.094-142.8z" />
<glyph unicode="&#xe682;" d="M783.2 654.4l33.4 55.4-59.4 25.2 14.6 63-64.4 5.6-5.6 64.4-62.8-14.4-25.2 59.4-55.2-33.4-46.6 48.4-46.6-48.8-55.2 33.4-25.2-59.4-62.8 14.4-5.6-64.2-64.4-5.6 14.6-62.8-59.4-25.2 33.2-55.4-48.6-42.2 48.6-42.4-33.2-55.2 59.4-25.2-14.6-62.8 64.2-5.6 6.2-64.2 25.2 6 4.2-362.8 160 143 160-143 4.6 360.6 24.6-4 5.8 64.4 64.4 5.6-14.4 62.8 59.4 25.2-33.2 55.4 48.8 42.2-48.8 42.2zM704 608c0-106-86-192-192-192s-192 86-192 192 86 192 192 192 192-86 192-192z" />
<glyph unicode="&#xe683;" d="M896 896h-768v-896l384 208 384-208v896z" />
<glyph unicode="&#xe684;" d="M768 704c35.29 0 64-28.711 64-64v-512h-640v576h576zM768 768h-640v-704h768v576c0 70.693-57.308 128-128 128v0zM320 576h384v-64h-384v64zM320 448h384v-64h-384v64zM320 320h384v-64h-384v64z" />
<glyph unicode="&#xe685;" d="M615.946 833.628l242.628-242.368-254.528-254.116-242.836 242.388 254.736 254.096zM615.946 864l-285.068-284.452 273.168-272.814 284.862 284.526-272.962 272.74zM351.948 222.832l-105.046 104.934 63.002 230.844 273.222-272.792-231.178-62.986zM225.794 306.808l-129.794-146.808h193.020l41.82 41.84-105.046 104.968zM96 128h832v-96h-832v96z" />
<glyph unicode="&#xe686;" d="M352 642.054c-50.297 0-88.312-37.238-88.312-96.481s38.015-96.957 88.312-96.957c50.262 0 88.312 37.715 88.312 96.957 0 58.801-38.051 96.481-88.312 96.481zM896 896h-768c-70.691 0-128-57.305-128-128v-448c0-70.691 57.309-128 128-128h64l320-256v256h384c70.691 0 128 57.309 128 128v448c0 70.695-57.309 128-128 128zM352 384.004c-89.629 0-160 59.68-160 159.777 0 100.067 70.371 160.219 160 160.219 89.594 0 160-60.152 160-160.219 0-100.097-70.406-159.777-160-159.777zM848 379.066h-76.594l-139.887 217.059c0 0 1.391-38.516 1.391-72.351v-144.707h-72.91v320h79.828l136.652-215.172c0 0-1.391 36.18-1.391 70.012v145.16h72.911v-320z" />
<glyph unicode="&#xe687;" d="M896 896h-768c-70.691 0-128-57.305-128-128v-448c0-70.691 57.309-128 128-128h64l320-256v256h384c70.691 0 128 57.309 128 128v448c0 70.695-57.309 128-128 128z" />
<glyph unicode="&#xe688;" d="M896 896h-768c-70.691 0-128-57.305-128-128v-448c0-70.691 57.309-128 128-128h64l320-256v256h384c70.691 0 128 57.309 128 128v448c0 70.695-57.309 128-128 128zM960 320c0-35.289-28.711-64-64-64h-448v-192l-224 192h-96c-35.289 0-64 28.711-64 64v448c0 35.289 28.711 64 64 64h768c35.289 0 64-28.711 64-64v-448z" />
<glyph unicode="&#xe689;" d="M896 896h-768c-70.4 0-128-57.6-128-128v-448c0-70.4 57.6-128 128-128h64l320-256v256h384c70.4 0 128 57.6 128 128v448c0 70.4-57.6 128-128 128zM960 320c0-38.4-25.6-64-64-64h-448v-192l-224 192h-96c-38.4 0-64 25.6-64 64v448c0 38.4 25.6 64 64 64h768c38.4 0 64-25.6 64-64v-448zM812.8 684.8l-89.6 89.6-275.2-275.2-134.4 134.4-89.6-89.6 224-224z" />
<glyph unicode="&#xe68a;" d="M354.154 371.588c0.202-2.394 0.404-4.762 0.604-7.106 0.304-2.32 0.554-4.586 0.806-6.804 1.058-8.896 2.42-17.010 3.83-24.116 0.654-3.554 1.512-6.854 2.168-9.904 0.654-3.024 1.412-5.922 2.066-8.518 0.354-1.286 0.654-2.496 0.958-3.654 0.304-1.134 0.604-2.218 0.906-3.1 0.554-1.816 1.058-3.354 1.412-4.612 0.806-2.494 1.26-3.828 1.26-3.828 2.218-6.906 8.668-11.942 16.33-11.942 9.526-0.028 17.238 7.686 17.238 17.184 0 0 0 1.384 0 4.006 0 1.31 0 2.922-0.050 4.838 0 0.982 0.050 1.89 0.1 2.898 0.050 0.982 0.1 2.042 0.152 3.15 0.152 4.335 0.454 10.003 0.958 16.303 0.354 3.176 0.554 6.528 1.058 10.054 0.404 3.554 0.806 7.232 1.412 11.088 1.058 7.686 2.772 15.926 4.536 24.546 2.016 8.618 4.184 17.59 7.106 26.688 2.822 9.072 5.896 18.346 9.676 27.468 3.728 9.148 7.862 18.195 12.348 26.938 1.11 2.192 2.218 4.386 3.428 6.528 1.16 2.116 2.321 4.284 3.528 6.376 2.52 4.184 4.888 8.342 7.56 12.298 2.47 4.032 5.292 7.786 7.862 11.618 1.362 1.84 2.67 3.678 4.032 5.494 0.654 0.906 1.362 1.814 2.016 2.722 0.707 0.882 1.363 1.738 2.067 2.596 1.362 1.738 2.772 3.428 4.082 5.116 1.412 1.638 2.822 3.252 4.234 4.838 0.654 0.806 1.362 1.588 2.016 2.37 0.706 0.756 1.412 1.512 2.116 2.268 1.412 1.488 2.772 2.948 4.132 4.41 2.822 2.772 5.494 5.52 8.216 8.014 2.57 2.218 4.838 4.536 7.208 6.602l56.9-78.902 126.558 281.638-307.19-31.17 60.984-84.596c-4.486-4.536-9.224-9.676-13.86-15.448-0.756-0.932-1.562-1.89-2.37-2.898-0.756-1.008-1.512-2.016-2.268-3.050-1.512-2.042-3.074-4.158-4.586-6.3-3.074-4.336-5.998-8.92-9.072-13.584-1.462-2.394-2.922-4.812-4.386-7.258-0.756-1.236-1.462-2.47-2.218-3.704-0.706-1.236-1.412-2.52-2.116-3.78-1.412-2.546-2.822-5.116-4.234-7.709-1.362-2.646-2.722-5.292-4.082-7.988-0.654-1.336-1.31-2.67-2.016-4.032-0.604-1.362-1.26-2.746-1.864-4.132-1.26-2.746-2.57-5.52-3.78-8.316-2.37-5.644-4.738-11.366-6.804-17.212-2.168-5.796-4.032-11.742-5.998-17.666-0.906-2.974-1.712-5.972-2.57-8.97-0.906-2.974-1.662-5.972-2.42-8.996-1.562-5.998-2.922-12.046-4.132-18.068-0.604-2.998-1.11-6.022-1.612-9.022l-0.806-4.486c-0.202-1.512-0.404-2.998-0.654-4.486-1.814-11.92-2.872-23.688-3.478-35.028-0.654-11.366-0.504-22.328-0.252-32.634 0.3-5.176 0.45-10.166 0.956-15.030v0zM896 896h-768c-70.691 0-128-57.305-128-128v-448c0-70.691 57.309-128 128-128h64l320-256v256h384c70.691 0 128 57.309 128 128v448c0 70.695-57.309 128-128 128zM960 320c0-35.289-28.711-64-64-64h-448v-192l-224 192h-96c-35.289 0-64 28.711-64 64v448c0 35.289 28.711 64 64 64h768c35.289 0 64-28.711 64-64v-448z" />
<glyph unicode="&#xe68b;" d="M896 896h-768c-70.691 0-128-57.305-128-128v-448c0-70.691 57.309-128 128-128h64l320-256v256h384c70.691 0 128 57.309 128 128v448c0 70.695-57.309 128-128 128zM832 384h-640v64h640v-64zM832 512h-640v64h640v-64zM832 640h-640v64h640v-64z" />
<glyph unicode="&#xe68c;" d="M192 704h640v-64h-640v64zM192 576h640v-64h-640v64zM192 448h640v-64h-640v64zM896 896h-768c-70.691 0-128-57.305-128-128v-448c0-70.691 57.309-128 128-128h64l320-256v256h384c70.691 0 128 57.309 128 128v448c0 70.695-57.309 128-128 128zM960 320c0-35.289-28.711-64-64-64h-448v-192l-224 192h-96c-35.289 0-64 28.711-64 64v448c0 35.289 28.711 64 64 64h768c35.289 0 64-28.711 64-64v-448z" />
<glyph unicode="&#xe68d;" d="M192 704h640v-64h-640v64zM192 576h640v-64h-640v64zM192 448h640v-64h-640v64zM594.746 210.746l-18.746 18.746v26.508h-128v-192l-224 192h-96c-35.289 0-64 28.711-64 64v448c0 35.289 28.711 64 64 64h768c35.289 0 64-28.711 64-64v-384h64v384c0 70.695-57.309 128-128 128h-768c-70.691 0-128-57.305-128-128v-448c0-70.691 57.309-128 128-128h64l320-256v256h101.492l-18.746 18.746zM640 320v-64l128-128v-128h128v128l128 128v64z" />
<glyph unicode="&#xe68e;" d="M192 704h640v-64h-640v64zM192 576h640v-64h-640v64zM192 448h448v-64h-448v64zM896 896h-768c-70.691 0-128-57.305-128-128v-448c0-70.691 57.309-128 128-128h64l320-256v320h-64v-192l-224 192h-96c-35.289 0-64 28.711-64 64v448c0 35.289 28.711 64 64 64h768c35.289 0 64-28.711 64-64v-448h64v448c0 70.695-57.309 128-128 128zM960 256h-128v128h-128v-128h-128v-128h128v-128h128v128h128z" />
<glyph unicode="&#xe68f;" d="M96 672l128-128 144 128 144-128 128 128 144-128 144 128 96-96v192c0 70.695-57.309 128-128 128h-768c-70.691 0-128-57.305-128-128v-192l96 96zM928 544l-144-144-144 128-128-128-144 128-144-128-128 128-96-96v-112c0-70.691 57.309-128 128-128h64l320-256v256h384c70.691 0 128 57.309 128 128v112l-96 112z" />
<glyph unicode="&#xe690;" d="M896 896h-768c-70.691 0-128-57.305-128-128v-448c0-70.691 57.309-128 128-128h64l320-256v256h384c70.691 0 128 57.309 128 128v448c0 70.695-57.309 128-128 128zM768 512h-192v-192h-64v192h-192v64h192v192h64v-192h192v-64z" />
<glyph unicode="&#xe691;" d="M64 768v-704h832v704h-832zM320 128h-192v128h192v-128zM320 320h-192v128h192v-128zM320 512h-192v128h192v-128zM576 128h-192v128h192v-128zM576 320h-192v128h192v-128zM576 512h-192v128h192v-128zM832 128h-192v128h192v-128zM832 320h-192v128h192v-128zM832 512h-192v128h192v-128z" />
<glyph unicode="&#xe692;" d="M64 832v-656.2l64 63.978v16.222h13.908c-14.498 37.702-19.032 78.014-13.908 117.15v74.85h22.654c11.37 23.086 26.608 44.658 45.654 63.694 0.104 0.104 0.21 0.202 0.314 0.306h-68.622v128h192v-62.392c15 2.898 30.386 4.392 46 4.392 6.038 0 12.040-0.222 18-0.662v58.662h192v-128h-40.622c0.1-0.1 0.204-0.196 0.304-0.298 45.342-45.324 70.312-105.59 70.306-169.698-0.004-41.37-10.42-81.138-29.988-116.338v-97.666h-101.138c-33.312-16.998-70.396-26.004-108.862-26.004-30.352 0-60.002 5.652-87.73 16.572l-54.558-54.568h672.288v768h-832zM832 128h-192v128h192v-128zM832 320h-192v128h192v-128zM832 512h-192v128h192v-128zM266.25 197.062c29.938-20.686 64.812-31.066 99.75-31.066 45.032 0 90.062 17.192 124.438 51.566 68.718 68.748 68.75 180.156 0 248.876-34.344 34.374-79.376 51.562-124.438 51.562-45.032 0-90.062-17.188-124.438-51.562-61-60.968-67.812-155.626-20.562-224.186l-176.438-176.376 45.218-45.312 176.47 176.498zM366 461c65.718 0 119-53.282 119-119 0-65.686-53.282-118.934-119-118.934-65.656 0-118.938 53.248-118.938 118.934 0 65.718 53.282 119 118.938 119z" />
<glyph unicode="&#xe693;" d="M64 768v-704h832v704h-832zM320 128h-192v128h192v-128zM320 320h-192v128h192v-128zM320 512h-192v128h192v-128zM832 128h-192v128h192v-128zM832 320h-192v128h192v-128zM832 512h-192v128h192v-128z" />
<glyph unicode="&#xe694;" d="M64 768v-704h832v704h-832zM384 640h192v-128h-192v128zM128 640h192v-128h-192v128zM320 128h-192v128h192v-128zM576 128h-192v128h192v-128zM832 128h-192v128h192v-128zM832 512h-192v128h192v-128z" />
<glyph unicode="&#xe695;" d="M128 928c0 19.2 12.8 32 32 32h640c19.2 0 32-12.8 32-32s-12.8-32-32-32h-640c-19.2 0-32 12.8-32 32zM128-32c0 19.2 12.8 32 32 32h640c19.2 0 32-12.8 32-32s-12.8-32-32-32h-640c-19.2 0-32 12.8-32 32zM480 64l160 256h-128v256h128l-160 256-160-256h128v-256h-128z" />
<glyph unicode="&#xe696;" d="M32 64c-19.2 0-32 12.8-32 32v640c0 19.2 12.8 32 32 32s32-12.8 32-32v-640c0-19.2-12.8-32-32-32zM992 64c-19.2 0-32 12.8-32 32v640c0 19.2 12.8 32 32 32s32-12.8 32-32v-640c0-19.2-12.8-32-32-32zM896 416l-256 160v-128h-256v128l-256-160 256-160v128h256v-128z" />
<glyph unicode="&#xe697;" d="M128 512v-320h192v320h128l-224 256-224-256zM512 448h448v-64h-448v64zM512 576h448v-64h-448v64zM512 704h448v-64h-448v64zM512 320h448v-64h-448v64z" />
<glyph unicode="&#xe698;" d="M512 960c-282.8 0-512-229.2-512-512s229.2-512 512-512 512 229.2 512 512-229.2 512-512 512zM501 160v0c-45.4 0-76.2 26-76.2 69.6 0 43.8 30.8 69.6 76.2 69.6s76.2-26 76.2-69.6c0-43.6-30.8-69.6-76.2-69.6zM639.6 466.2v0c-28.4-25-61.6-43.8-73.8-57.6-7.2-9-9-15.4-9-30l-0.8-38h-110l-0.8 52.6c-0.8 50.2 17 75.4 51 99.6l49.4 35.6c17.8 13 35.6 27.6 35.6 50.2 0 34-29.2 52.6-77.8 52.6-49.4 0-89.2-24.4-114.2-48.6l-37.2 91c17 18.6 68.8 62.4 173.4 62.4 103.6 0 173.4-65.6 173.4-143.4 0-67.2-27.6-97.2-59.2-126.4z" />
<glyph unicode="&#xe699;" d="M512 896h-447.424v-640h255.424v64h-192v512h384c35.264 0 64-28.736 64-64v-64h64v64c0 70.72-57.28 128-128 128zM192 768h320v-64h-320v64zM192 640h64v-64h-64v64zM832 640h-512v-64h512c35.264 0 64-28.736 64-64v-448h-448v256h-63.424v-320h575.424v512c0 70.72-57.28 128-128 128zM192 512h640v-64h-640v64zM512 384h320v-64h-320v64zM512 256h320v-64h-320v64z" />
<glyph unicode="&#xe69a;" d="M464 272l16 48h-91.348l30.207 112.734-30.91 8.285-32.426-121.020h-110.871l30.207 112.734-30.91 8.285-32.426-121.020h-99.523l-16-48h102.66l-25.723-96h-92.937l-16-48h96.078l-32.078-119.719 30.91-8.281 34.297 128h110.871l-32.078-119.719 30.91-8.281 34.297 128h94.793l16 48h-97.93l25.723 96h88.207zM316.937 176h-110.867l25.723 96h110.867l-25.723-96zM225.28 864c34.584 0 62.72-28.136 62.72-65.28 0-34.584-28.136-62.72-65.28-62.72-34.584 0-62.72 28.136-62.72 65.28 0 34.584 28.136 62.72 62.72 62.72h2.56zM225.28 896h-2.56c-52.312 0-94.72-42.408-94.72-94.72v-2.56c0-52.312 42.408-94.72 94.72-94.72h2.56c52.312 0 94.72 42.408 94.72 94.72v2.56c0 52.312-42.408 94.72-94.72 94.72v0zM481.28 672c34.584 0 62.72-28.136 62.72-65.28 0-34.584-28.136-62.72-65.28-62.72-34.584 0-62.72 28.136-62.72 65.28 0 34.584 28.136 62.72 62.72 62.72h2.56zM481.28 704h-2.56c-52.312 0-94.72-42.408-94.72-94.72v-2.56c0-52.312 42.408-94.72 94.72-94.72h2.56c52.312 0 94.72 42.408 94.72 94.72v2.56c0 52.312-42.408 94.72-94.72 94.72v0zM450.144 905.99l27.713-16-224-387.979-27.713 16 224 387.979zM864.961 896h-1.922c-52.488 0-95.039-42.551-95.039-95.039v-1.922c0-52.488 42.551-95.039 95.039-95.039h1.922c16.18 0 31.18 4.422 44.516 11.551-25.152-52.52-74.816-85.598-141.477-90.223v-31.953c113.496 6.957 189.227 85.504 191.563 201.32 0.066 1.473 0.437 2.855 0.437 4.344v1.922c0 52.488-42.551 95.039-95.039 95.039zM960 178.191c0 70.125-66.902 85.492-133.738 96.754-3.648 0.605-6.762 1.191-10.262 1.785v135.676c50.16-3.703 90.555-22.844 95.109-78.070h38.070c-2.344 79.242-65.273 108.133-133.18 112.723v64.941h-32v-64.57c-67.125-2.84-133.18-30.027-133.18-105.41 0-58.637 46.496-83.223 133.18-97.078v-145.266c-58.602 4.090-99.949 26.133-105.93 94.371h-38.070c5.195-90.004 62.84-123.863 144-128.996v-65.051h32v64.422c69.086 2.082 144 28.004 144 113.77zM691.992 348.652c0 38.621 38.93 60.965 92.008 63.922v-129.937c-61.016 12.223-92.008 26.715-92.008 66.016zM816 99.172v140.586c55.094-9.094 102.828-21.113 102.828-68.234 0-54.598-50.852-70.691-102.828-72.352z" />
<glyph unicode="&#xe69b;" d="M320 640h384v-64h-384v64zM608 64h-416v768h569.602c38.816 0 70.398-31.578 70.398-70.398v-249.602h64v249.602c0 74.227-60.172 134.398-134.398 134.398h-633.602v-896h528l-48 64zM576 512h-256v-64h145.805c22.207 38.074 63.035 64 110.195 64zM320 384h128v-64h-128v64zM896 448h-320c-35.348 0-64-28.652-64-64v-192c0-35.344 28.652-64 64-64h64l96-128 96 128h64c35.348 0 64 28.656 64 64v192c0 35.348-28.652 64-64 64z" />
<glyph unicode="&#xe69c;" d="M384 512v-512h256v512h256l-384 384-384-384z" />
<glyph unicode="&#xe69d;" d="M640 384v512h-256v-512h-256l384-384 384 384z" />
<glyph unicode="&#xe69e;" d="M64 576h384v-64h-384v64zM64 448h256v-192h-256v192zM64 192h384v-64h-384v64zM896 768v-352c0-17.656-14.375-32-32-32h-160v192l-320-224 320-224v192h160c52.937 0 96 43.063 96 96v352h-64z" />
<glyph unicode="&#xe69f;" d="M448 224v-160l-224 192h-96c-35.289 0-64 28.711-64 64v448c0 35.289 28.711 64 64 64h768c35.289 0 64-28.711 64-64v-259.215c23.246-14.379 44.617-30.867 64-49.449v308.664c0 70.695-57.309 128-128 128h-768c-70.691 0-128-57.305-128-128v-448c0-70.691 57.309-128 128-128h64l320-256v240l-64 48zM704 448v128l-256-192 256-192v128c128 0 320-64 320-192 0 192-108.25 320-320 320z" />
<glyph unicode="&#xe6a0;" d="M384 832h576v-64h-576v64zM384 192h576v-64h-576v64zM576 448h384v-64h-384v64zM576 576h384v-64h-384v64zM576 704h384v-64h-384v64zM576 320h384v-64h-384v64zM64 512h384v-128h-384v128z" />
<glyph unicode="&#xe6a1;" d="M512 960c-282.77 0-512-229.23-512-512s229.23-512 512-512 512 229.23 512 512-229.23 512-512 512zM816.056 143.944c-39.518-39.516-85.512-70.532-136.708-92.186-13.006-5.5-26.214-10.328-39.6-14.492v76.734c0 40.334-13.834 70-41.5 89 17.334 1.666 33.25 4 47.75 7s29.834 7.334 46 13 30.666 12.416 43.5 20.25 25.166 18 37 30.5 21.75 26.666 29.75 42.5 14.334 34.834 19 57 7 46.584 7 73.25c0 51.666-16.834 95.666-50.5 132 15.334 40 13.666 83.5-5 130.5l-12.5 1.5c-8.666 1-24.25-2.666-46.75-11s-47.75-22-75.75-41c-39.666 11-80.834 16.5-123.5 16.5-43 0-84-5.5-123-16.5-17.666 12-34.416 21.916-50.25 29.75s-28.5 13.166-38 16-18.334 4.584-26.5 5.25-13.416 0.834-15.75 0.5-4-0.666-5-1c-18.666-47.334-20.334-90.834-5-130.5-33.666-36.334-50.5-80.334-50.5-132 0-26.666 2.334-51.084 7-73.25s11-41.166 19-57 17.916-30 29.75-42.5 24.166-22.666 37-30.5 27.334-14.584 43.5-20.25 31.5-10 46-13 30.416-5.334 47.75-7c-27.334-18.666-41-48.334-41-89v-78.23c-15.098 4.494-29.98 9.804-44.6 15.988-51.194 21.654-97.188 52.67-136.706 92.186-39.516 39.518-70.534 85.512-92.186 136.708-22.398 52.958-33.756 109.262-33.756 167.348s11.358 114.39 33.758 167.35c21.654 51.194 52.67 97.188 92.186 136.706s85.512 70.534 136.706 92.186c52.96 22.4 109.264 33.758 167.35 33.758s114.39-11.358 167.35-33.758c51.196-21.654 97.19-52.67 136.708-92.186 39.516-39.516 70.532-85.512 92.186-136.706 22.398-52.96 33.756-109.264 33.756-167.35s-11.358-114.39-33.758-167.35c-21.654-51.194-52.67-97.19-92.186-136.706z" />
<glyph unicode="&#xe6a2;" d="M512 469.334h-213.333l234.667 384 234.667-384h-213.333v-298.667h-42.667zM85.333 21.334c0-11.781 9.549-21.333 21.333-21.333h810.667c11.781 0 21.333 9.552 21.333 21.333s-9.552 21.333-21.333 21.333h-810.667c-11.784 0-21.333-9.552-21.333-21.333z" />
<glyph unicode="&#xe6a3;" d="M192 704h640v-64h-640v64zM192 576h640v-64h-640v64zM576 256h-128v-192l-224 192h-96c-38.4 0-64 25.6-64 64v448c0 38.4 25.6 64 64 64h768c38.4 0 64-25.6 64-64v-384c25.6-25.6 44.8-64 57.6-102.4 6.4 12.8 6.4 25.6 6.4 38.4v448c0 70.4-57.6 128-128 128h-768c-70.4 0-128-57.6-128-128v-448c0-70.4 57.6-128 128-128h64l320-256v256h64v64zM800 448h-608v-64h448c38.4 38.4 96 64 160 64zM800 384v0c-89.6 0-160-70.4-160-160v-128c0-89.6 70.4-160 160-160h6.4c64 0 121.6 38.4 147.2 96h-76.8c-19.2-19.2-44.8-32-70.4-32-51.2 0-96 44.8-96 96v128c0 51.2 44.8 96 96 96h6.4c51.2 0 96-44.8 96-96v-64c0-19.2-12.8-32-32-32s-32 12.8-32 32v96h-64v-96c0-51.2 44.8-96 96-96v0c51.2 0 96 44.8 96 96v64c-12.8 89.6-83.2 160-172.8 160z" />
<glyph unicode="&#xe6a4;" d="M512 896c247.028 0 448-200.972 448-448s-200.972-448-448-448-448 200.972-448 448 200.972 448 448 448zM512 960c-282.769 0-512-229.231-512-512s229.231-512 512-512 512 229.231 512 512-229.231 512-512 512v0zM445.539 224l-221.539 224 88.613 89.602 132.926-134.402 265.848 268.801 88.613-89.602z" />
<glyph unicode="&#xe6a5;" d="M512 384h-213.333l234.667-384 234.667 384h-213.333v298.667h-42.667zM85.333 832c0 11.781 9.549 21.333 21.333 21.333h810.667c11.781 0 21.333-9.552 21.333-21.333s-9.552-21.333-21.333-21.333h-810.667c-11.784 0-21.333 9.552-21.333 21.333z" />
<glyph unicode="&#xe6a6;" d="M602.6 448l135.6-135.8-90.4-90.4-135.8 135.6-135.8-135.6-90.4 90.4 135.6 135.8-135.6 135.8 90.4 90.4 135.8-135.6 135.8 135.6 90.4-90.4-135.6-135.8zM512 896c247 0 448-201 448-448s-201-448-448-448-448 201-448 448 201 448 448 448zM512 960c-282.8 0-512-229.2-512-512s229.2-512 512-512 512 229.2 512 512-229.2 512-512 512z" />
<glyph unicode="&#xe6a7;" d="M576 384v-192h-128v192h-192v128h192v192h128v-192h192v-128h-192zM512 896c247 0 448-201 448-448s-201-448-448-448-448 201-448 448 201 448 448 448zM512 960c-282.8 0-512-229.2-512-512s229.2-512 512-512 512 229.2 512 512-229.2 512-512 512z" />
<glyph unicode="&#xe6a8;" d="M512 896c247.028 0 448-200.972 448-448s-200.972-448-448-448-448 200.972-448 448 200.972 448 448 448zM512 960c-282.769 0-512-229.231-512-512s229.231-512 512-512 512 229.231 512 512-229.231 512-512 512v0zM192 512h640v-128h-640v128z" />
<glyph unicode="&#xe6a9;" d="M512 896c249.6 0 448-198.4 448-448s-198.4-448-448-448-448 198.4-448 448 198.4 448 448 448zM512 960c-281.6 0-512-230.4-512-512s230.4-512 512-512 512 230.4 512 512-230.4 512-512 512z" />
<glyph unicode="&#xe6aa;" d="M512 928c-265 0-480-215-480-480s215-480 480-480 480 215 480 480-215 480-480 480v0zM576 320l-192 128 192 128v-256z" />
<glyph unicode="&#xe6ab;" d="M512 928c-265 0-480-215-480-480s215-480 480-480 480 215 480 480-215 480-480 480v0zM448 576l192-128-192-128v256z" />
<glyph unicode="&#xe6ac;" d="M64 544l384 288v-192c0 0 512 0 512-576v0c-64 384-512 384-512 384v-192l-384 288z" />
<glyph unicode="&#xe6ad;" d="M192 704v-64h330.977l64 64zM832 512v64h-10.977l-64-64zM192 576v-64h202.98l64 64zM192 448v-64h74.98l64 64zM832 384v64h-138.977l-64.004-64zM128 256c-35.289 0-64 28.711-64 64v448c0 35.289 28.711 64 64 64h586.977l64 64h-650.977c-70.691 0-128-57.305-128-128v-448c0-54.945 34.797-101.418 83.414-119.567l55.567 55.567h-10.98zM448 64l-74.836 64.145-45.043-45.043 183.879-147.101v256h384c70.691 0 128 57.309 128 128v448c0 3.414-0.742 6.625-1.004 9.972l-62.996-62.996v-394.977c0-35.289-28.711-64-64-64h-394.98l-53.020-53.020v-138.98zM933.492 959.999l90.51-90.51-814.591-814.591-90.51 90.51 814.591 814.591z" />
<glyph unicode="&#xe6ae;" d="M554.667 426.667v213.333l384-234.667-384-234.667v213.333h-298.667v42.667zM106.667 853.334c-11.781 0-21.333-9.549-21.333-21.333v-810.667c0-11.781 9.552-21.333 21.333-21.333s21.333 9.552 21.333 21.333v810.667c0 11.784-9.552 21.333-21.333 21.333z" />
<glyph unicode="&#xe6af;" d="M469.333 426.667v213.333l-384-234.667 384-234.667v213.333h298.667v42.667zM917.333 853.334c-11.781 0-21.333-9.549-21.333-21.333v-810.667c0-11.781 9.552-21.333 21.333-21.333s21.333 9.552 21.333 21.333v810.667c0 11.784-9.552 21.333-21.333 21.333z" />
<glyph unicode="&#xe6b0;" d="M767.996 896h-703.996v-896h303.998l-8 64h-231.998v192h207.999l-8 64h-199.999v192h256v-24l64-80v104h264l56-112v496h-0.004zM128 576v192h256v-192h-256zM448 576v192h256v-192h-256zM912 0h-480l-48 384 160-192 128 256 128-256 160 192z" />
<glyph unicode="&#xe6b1;" d="M768 0v896h-704v-896zM448 768h256v-192h-256v192zM128 768h256v-192h-256v192zM384 512v-192h-256v192h256zM384 64h-256v192h256v-192zM704 64h-256v192h256v-192zM448 320v192h256v-192h-256z" />
<glyph unicode="&#xe6b2;" d="M704 128h-448v64h448zM704 256h-448v64h448zM704 384h-448v64h448zM736 768h-99.227c-14.828 73.031-79.367 128-156.773 128s-141.973-54.965-156.801-127.996v-0.004h-99.199c-53.020 0-96-42.98-96-96v-640c0-53.020 42.98-96 96-96h512c53.020 0 96 42.98 96 96v640c0 53.020-42.98 96-96 96zM768 32c0-17.645-14.355-32-32-32h-512c-17.645 0-32 14.355-32 32v544h576v-544zM768 640h-576v31.875c0 17.715 14.41 32.125 32.125 32.125h193.527c-10.41 13.504-17.652 29.633-17.652 48 0 44.184 35.816 80 80 80s80-35.816 80-80c0-18.367-7.242-34.496-17.652-48h193.652c17.645 0 32-14.355 32-32v-32z" />
<glyph unicode="&#xe6b3;" d="M469.333 42.667h-341.333v810.667h554.667c47.052 0 85.333-38.279 85.333-85.333v-128c14.987 0 29.289-2.768 42.667-7.523v135.523c0 70.693-57.307 128-128 128h-597.333v-896h396.82c-6.362 13.286-10.633 27.578-12.82 42.667zM896 469.334h-85.333v42.667c0 23.565-19.102 42.667-42.667 42.667h-85.333c-23.565 0-42.667-19.102-42.667-42.667v-42.667h-85.333c-23.565 0-42.667-19.102-42.667-42.667v-42.667c0-23.563 19.102-42.667 42.667-42.667v-277.333c0-35.346 28.654-64 64-64h213.333c35.346 0 64 28.654 64 64v277.333c23.565 0 42.667 19.104 42.667 42.667v42.667c0 23.565-19.102 42.667-42.667 42.667zM682.667 512h85.333v-42.667h-85.333v42.667zM853.333 64c0-11.763-9.57-21.333-21.333-21.333h-213.333c-11.763 0-21.333 9.57-21.333 21.333v277.333h256v-277.333zM896 426.667v-42.667h-341.333v42.667h341.333z" />
<glyph unicode="&#xe6b4;" d="M512 853.334c235.265 0 426.667-191.402 426.667-426.667s-191.402-426.667-426.667-426.667-426.667 191.402-426.667 426.667 191.402 426.667 426.667 426.667zM512 896c-259.206 0-469.333-210.128-469.333-469.333s210.128-469.333 469.333-469.333 469.333 210.128 469.333 469.333-210.128 469.333-469.333 469.333v0zM603.583 283.584l-121.753 121.753c-8.002 8.002-12.497 18.854-12.497 30.17v247.16h42.667v-247.167l121.75-121.75-30.167-30.167z" />
<glyph unicode="&#xe6b5;" d="M853.333 597.334v213.333h-682.667v-42.667l298.667-320-298.667-320v-42.667h682.667v213.333h-42.667v-170.667h-576l298.667 320-298.667 320h576v-170.667z" />
<glyph unicode="&#xe6b6;" d="M533.333 853.334c-85.732 0-165.604-24.339-233.583-66.169l-65.083 130.169-160-320h320l-75.745 151.49c62.26 39.026 135.659 61.844 214.411 61.844 223.503 0 405.333-181.831 405.333-405.333 0-223.5-181.831-405.333-405.333-405.333s-405.333 181.833-405.333 405.333c0 21.828 2.219 43.099 5.557 64h-43.135c-3.005-20.958-5.089-42.211-5.089-64 0-247.422 200.576-448 448-448s448 200.578 448 448c0 247.424-200.576 448-448 448zM708.104 280.995l-153.437 153.437v226.901c0 11.792-9.542 21.333-21.333 21.333s-21.333-9.542-21.333-21.333v-245.333h0.758l165.177-165.174c8.339-8.339 21.831-8.339 30.169 0 8.339 8.336 8.339 21.831 0 30.169z" />
<glyph unicode="&#xe6b7;" d="M502.669 215.472c-21.12 37.211-33.336 80.104-33.336 125.862 0 94.508 51.612 177.016 128 221.362v119.971c0 117.82-95.513 213.333-213.333 213.333h-42.667c-117.82 0-213.333-95.513-213.333-213.333v-128h-85.333c-23.563 0-42.667-19.102-42.667-42.667v-426.667c0-23.563 19.104-42.667 42.667-42.667h352.568c17.643 68.172 55.669 128.091 107.435 172.805zM170.667 682.667c0 94.107 76.563 170.667 170.667 170.667h42.667c94.107 0 170.667-76.56 170.667-170.667v-128h-384v128zM857.81 175.448c-12.727-10.185-26.388-19.070-41.247-26.161 59.615-28.292 104.297-82.948 117.818-149.286h-418.094c13.521 66.339 58.203 120.995 117.818 149.286-14.859 7.091-28.521 15.977-41.247 26.161-73.815-44.885-123.523-125.406-123.523-218.115h512c0 92.711-49.711 173.227-123.523 218.115zM725.333 469.334c70.58 0 128-57.42 128-128s-57.42-128-128-128-128 57.42-128 128 57.42 128 128 128zM725.333 512c-94.257 0-170.667-76.41-170.667-170.667s76.41-170.667 170.667-170.667 170.667 76.41 170.667 170.667-76.41 170.667-170.667 170.667v0z" />
<glyph unicode="&#xe6b8;" d="M384 192h576v-64h-576v64zM384 832h576v-64h-576v64zM576 576h384v-64h-384v64zM576 448h384v-64h-384v64zM576 320h384v-64h-384v64zM576 704h384v-64h-384v64zM256 384h192v192h-192v96l-192-192 192-192z" />
<glyph unicode="&#xe6b9;" d="M192 512v-256h192v256h96l-192 192-192-192zM384 832h576v-64h-576v64zM384 192h576v-64h-576v64zM576 448h384v-64h-384v64zM576 576h384v-64h-384v64zM576 704h384v-64h-384v64zM576 320h384v-64h-384v64z" />
<glyph unicode="&#xe6ba;" d="M192 448v256h192v-256h96l-192-192-192 192zM384 832h576v-64h-576v64zM384 192h576v-64h-576v64zM576 448h384v-64h-384v64zM576 576h384v-64h-384v64zM576 704h384v-64h-384v64zM576 320h384v-64h-384v64z" />
<glyph unicode="&#xe6bb;" d="M64 832h576v-64h-576v64zM64 192h576v-64h-576v64zM64 448h384v-64h-384v64zM64 576h384v-64h-384v64zM64 704h384v-64h-384v64zM64 320h384v-64h-384v64zM768 576h-192v-192h192v-96l192 192-192 192z" />
<glyph unicode="&#xe6bc;" d="M384 832h576v-64h-576v64zM384 192h576v-64h-576v64zM576 448h384v-64h-384v64zM576 576h384v-64h-384v64zM576 704h384v-64h-384v64zM576 320h384v-64h-384v64zM192 640h128v-128h128v-128h-128v-128h-128v128h-128v128h128z" />
<glyph unicode="&#xe6bd;" d="M64 832h576v-64h-576v64zM64 192h576v-64h-576v64zM256 448h256v-64h-256v64zM256 576h256v-64h-256v64zM256 704h384v-64h-384v64zM256 320h384v-64h-384v64zM832 640h-128v-128h-128v-128h128v-128h128v128h128v128h-128z" />
<glyph unicode="&#xe6be;" d="M960 832v-101.49l-245.021-245.016c-48.351-48.352-74.979-112.639-74.979-181.021v-197.142l-192-76.8v273.942c0 68.381-26.628 132.669-74.98 181.020l-245.020 245.016v101.491h832zM1024 896h-960v-192l263.766-263.762c36.008-36.008 56.234-84.844 56.234-135.765v-368.473l320 128v240.473c0 50.922 20.227 99.757 56.234 135.765l263.766 263.762v192z" />
<glyph unicode="&#xe6bf;" d="M512 853.334c13.141 0 26.411-1.28 40.064-3.072l45.056-126.763 64.768-26.581 121.045 57.6c20.651-17.152 39.68-36.181 56.875-56.875l-57.6-121.173 26.581-64.555 18.901-6.741 107.947-38.357c1.792-13.568 3.029-26.837 3.029-40.149 0-13.269-1.237-26.539-3.029-40.107l-126.891-45.013-26.539-64.683 57.6-121.045c-17.195-20.693-36.224-39.765-56.917-56.96l-121.003 57.557-64.725-26.325-45.099-127.061c-14.037-1.835-27.051-3.029-40.064-3.029s-26.027 1.195-40.064 3.029l-45.099 127.061-64.725 26.325-121.003-57.557c-20.693 17.195-39.723 36.267-56.917 56.96l57.6 121.045-26.325 64.597-127.104 45.099c-1.792 13.568-3.029 26.837-3.029 40.107 0 13.312 1.237 26.581 3.029 40.149l127.061 45.184 26.368 64.469-57.6 121.173c17.195 20.693 36.224 39.723 56.875 56.875l121.045-57.6 64.768 26.581 45.056 126.763c13.568 1.792 26.88 3.072 40.064 3.072zM512 896c-24.448 0-48.085-3.627-71.68-7.211l-46.891-132.053c-10.709-3.84-20.992-7.893-31.147-12.629l-126.677 60.245c-38.656-28.416-72.747-62.507-101.291-101.248l60.245-126.677c-4.779-10.112-8.789-20.437-12.544-31.019l-132.181-46.976c-3.584-23.595-7.168-47.232-7.168-71.765 0-24.491 3.584-48.128 7.168-71.723l132.181-46.891c3.755-10.624 7.765-20.949 12.544-31.104l-60.245-126.635c28.544-38.699 62.635-72.789 101.291-101.333l126.677 60.245c10.155-4.736 20.437-8.789 31.147-12.544l46.891-132.139c23.595-3.669 47.232-7.211 71.68-7.211s48.085 3.541 71.68 7.211l46.891 132.139c10.709 3.755 20.992 7.808 31.147 12.544l126.677-60.245c38.656 28.544 72.747 62.635 101.291 101.333l-60.245 126.635c4.779 10.155 8.704 20.48 12.544 31.104l132.181 46.891c3.584 23.595 7.168 47.232 7.168 71.723 0 24.533-3.584 48.171-7.168 71.765l-132.181 46.976c-3.84 10.581-7.765 20.907-12.544 31.019l60.245 126.677c-28.544 38.741-62.635 72.832-101.291 101.248l-126.677-60.245c-10.155 4.736-20.437 8.789-31.147 12.629l-46.891 132.053c-23.595 3.584-47.232 7.211-71.68 7.211zM512 554.663c70.582 0 128.004-57.419 128.004-127.996 0-70.582-57.423-128.004-128.004-128.004-70.577 0-127.996 57.423-127.996 128.004 0 70.577 57.419 127.996 127.996 127.996zM512 597.329c-94.394 0-170.662-76.441-170.662-170.662s76.268-170.671 170.662-170.671 170.671 76.45 170.671 170.671c0 94.221-76.276 170.662-170.671 170.662v0z" />
<glyph unicode="&#xe6c0;" d="M469.333 384h-128v85.333h128v128h85.333v-128h128v-85.333h-128v-128h-85.333v128zM981.333 768v-682.667h-810.667c-72.533 0-128 55.467-128 128v426.667c0 72.533 55.467 128 128 128h810.667zM938.667 725.334h-768c-46.933 0-85.333-38.4-85.333-85.333v-426.667c0-46.933 38.4-85.333 85.333-85.333h768v597.333z" />
<glyph unicode="&#xe6c1;" d="M454.060 400.584l-84.776 83.122-70.617-69.242 155.391-152.367 271.276 265.997-70.617 69.24z" />
<glyph unicode="&#xe6c2;" d="M204.988 172.272c-57.36 69.105-91.922 157.778-91.922 254.395 0 219.974 178.962 398.933 398.933 398.933 96.617 0 185.293-34.561 254.395-91.922l49.91 49.91c-81.967 69.953-188.1 112.412-304.305 112.412-259.205 0-469.333-210.126-469.333-469.333 0-116.205 42.459-222.337 112.412-304.305l49.91 49.91zM908.63 676.814l-51.299-51.299c33.888-58.618 53.602-126.408 53.602-198.848 0-219.971-178.959-398.933-398.933-398.933-72.44 0-140.23 19.711-198.848 53.602l-51.296-51.296c72.468-45.802 158.076-72.706 250.144-72.706 259.205 0 469.333 210.129 469.333 469.333 0 92.068-26.901 177.679-72.703 250.147zM454.060 400.584l-84.776 83.122-70.617-69.242 155.391-152.367 271.276 265.997-70.617 69.24z" />
</font>
</defs>
</svg>
